<svg xmlns:xlink="http://www.w3.org/1999/xlink" xmlns="http://www.w3.org/2000/svg" version="1.0" preserveAspectRatio="xMidYMid meet" height="1080" viewBox="0 0 810 809.999993" zoomAndPan="magnify" width="1080"><defs><clipPath id="48b8fb67a3"><path clip-rule="nonzero" d="M 243 379 L 507 379 L 507 546.367188 L 243 546.367188 Z M 243 379"/></clipPath><clipPath id="044e9a0c70"><path clip-rule="nonzero" d="M 412 263.617188 L 567 263.617188 L 567 418 L 412 418 Z M 412 263.617188"/></clipPath></defs><path fill-rule="nonzero" fill-opacity="1" d="M 263.503906 340.785156 L 293.449219 340.785156 L 293.449219 352.652344 C 293.449219 353.914062 294.46875 354.9375 295.726562 354.9375 L 305.609375 354.9375 C 306.871094 354.9375 307.890625 353.914062 307.890625 352.652344 L 307.890625 340.785156 L 342.855469 340.785156 L 342.855469 352.652344 C 342.855469 353.914062 343.875 354.9375 345.132812 354.9375 L 355.015625 354.9375 C 356.269531 354.9375 357.296875 353.914062 357.296875 352.652344 L 357.296875 340.785156 L 392.261719 340.785156 L 392.261719 352.652344 C 392.261719 353.914062 393.277344 354.9375 394.539062 354.9375 L 404.417969 354.9375 C 405.683594 354.9375 406.699219 353.914062 406.699219 352.652344 L 406.699219 340.785156 L 441.667969 340.785156 L 441.667969 352.652344 C 441.667969 353.914062 442.683594 354.9375 443.945312 354.9375 L 453.828125 354.9375 C 455.089844 354.9375 456.105469 353.914062 456.105469 352.652344 L 456.105469 340.785156 L 486.050781 340.785156 C 495.699219 340.785156 503.523438 348.605469 503.523438 358.253906 L 503.523438 382.488281 L 246.035156 382.488281 L 246.035156 358.253906 C 246.035156 348.605469 253.855469 340.785156 263.503906 340.785156" fill="#63b8b1"/><path stroke-miterlimit="10" stroke-opacity="1" stroke-width="40" stroke="#ffffff" d="M 3125.322093 2594.551433 L 2911.715745 2594.551433 L 2911.715745 2509.900235 C 2911.715745 2500.900124 2904.443209 2493.599724 2895.470963 2493.599724 L 2824.974738 2493.599724 C 2815.974627 2493.599724 2808.702091 2500.900124 2808.702091 2509.900235 L 2808.702091 2594.551433 L 2559.290348 2594.551433 L 2559.290348 2509.900235 C 2559.290348 2500.900124 2552.017813 2493.599724 2543.045566 2493.599724 L 2472.549341 2493.599724 C 2463.604958 2493.599724 2456.276694 2500.900124 2456.276694 2509.900235 L 2456.276694 2594.551433 L 2206.864951 2594.551433 L 2206.864951 2509.900235 C 2206.864951 2500.900124 2199.62028 2493.599724 2190.620169 2493.599724 L 2120.151808 2493.599724 C 2111.123833 2493.599724 2103.879162 2500.900124 2103.879162 2509.900235 L 2103.879162 2594.551433 L 1854.439554 2594.551433 L 1854.439554 2509.900235 C 1854.439554 2500.900124 1847.194883 2493.599724 1838.194772 2493.599724 L 1767.698547 2493.599724 C 1758.698436 2493.599724 1751.453765 2500.900124 1751.453765 2509.900235 L 1751.453765 2594.551433 L 1537.847417 2594.551433 C 1469.023039 2594.551433 1413.211205 2538.767464 1413.211205 2469.943086 L 1413.211205 2297.074082 L 3249.93044 2297.074082 L 3249.93044 2469.943086 C 3249.93044 2538.767464 3194.146471 2594.551433 3125.322093 2594.551433 Z M 3125.322093 2594.551433" stroke-linejoin="round" fill="none" transform="matrix(-0.140189, 0, 0, -0.140189, 701.640448, 704.513361)" stroke-linecap="round"/><path fill-rule="nonzero" fill-opacity="1" d="M 503.523438 424.808594 C 503.523438 424.917969 503.507812 425.019531 503.503906 425.128906 C 503.507812 425.113281 503.507812 425.101562 503.507812 425.085938 C 503.507812 425.179688 503.523438 425.273438 503.523438 425.367188 L 503.523438 526.191406 C 503.523438 535.839844 495.699219 543.660156 486.050781 543.660156 L 263.503906 543.660156 C 253.855469 543.660156 246.035156 535.839844 246.035156 526.191406 L 246.035156 425.367188 C 246.035156 425.273438 246.042969 425.179688 246.046875 425.085938 C 246.046875 425.101562 246.054688 425.113281 246.054688 425.128906 C 246.046875 425.019531 246.035156 424.917969 246.035156 424.808594 L 246.035156 382.488281 L 503.523438 382.488281 L 503.523438 424.808594" fill="#63b8b1"/><g clip-path="url(#48b8fb67a3)"><path stroke-miterlimit="10" stroke-opacity="1" stroke-width="40" stroke="#ffffff" d="M 1413.211205 1995.1942 C 1413.211205 1994.414004 1413.322662 1993.689537 1413.350526 1992.909342 C 1413.322662 1993.020798 1413.322662 1993.104391 1413.322662 1993.215847 C 1413.322662 1992.547108 1413.211205 1991.87837 1413.211205 1991.209631 L 1413.211205 1272.008815 C 1413.211205 1203.184437 1469.023039 1147.400468 1537.847417 1147.400468 L 3125.322093 1147.400468 C 3194.146471 1147.400468 3249.93044 1203.184437 3249.93044 1272.008815 L 3249.93044 1991.209631 C 3249.93044 1991.87837 3249.874712 1992.547108 3249.846848 1993.215847 C 3249.846848 1993.104391 3249.79112 1993.020798 3249.79112 1992.909342 C 3249.846848 1993.689537 3249.93044 1994.414004 3249.93044 1995.1942 L 3249.93044 2297.074082 L 1413.211205 2297.074082 Z M 1413.211205 1995.1942" stroke-linejoin="round" fill="none" transform="matrix(-0.140189, 0, 0, -0.140189, 701.640448, 704.513361)" stroke-linecap="round"/></g><path fill-rule="nonzero" fill-opacity="1" d="M 455.007812 423.535156 C 455.007812 426.84375 457.6875 429.523438 460.996094 429.523438 L 470.972656 429.523438 C 474.28125 429.523438 476.960938 426.84375 476.960938 423.535156 L 476.960938 413.558594 C 476.960938 410.25 474.28125 407.574219 470.972656 407.574219 L 460.996094 407.574219 C 457.6875 407.574219 455.007812 410.25 455.007812 413.558594 L 455.007812 423.535156" fill="#ffffff"/><path fill-rule="nonzero" fill-opacity="1" d="M 409.40625 423.535156 C 409.40625 426.84375 412.082031 429.523438 415.390625 429.523438 L 425.367188 429.523438 C 428.675781 429.523438 431.359375 426.84375 431.359375 423.535156 L 431.359375 413.558594 C 431.359375 410.25 428.675781 407.574219 425.367188 407.574219 L 415.390625 407.574219 C 412.082031 407.574219 409.40625 410.25 409.40625 413.558594 L 409.40625 423.535156" fill="#ffffff"/><path fill-rule="nonzero" fill-opacity="1" d="M 363.800781 423.535156 C 363.800781 426.84375 366.484375 429.523438 369.785156 429.523438 L 379.769531 429.523438 C 383.078125 429.523438 385.753906 426.84375 385.753906 423.535156 L 385.753906 413.558594 C 385.753906 410.25 383.078125 407.574219 379.769531 407.574219 L 369.785156 407.574219 C 366.484375 407.574219 363.800781 410.25 363.800781 413.558594 L 363.800781 423.535156" fill="#ffffff"/><path fill-rule="nonzero" fill-opacity="1" d="M 318.195312 423.535156 C 318.195312 426.84375 320.878906 429.523438 324.1875 429.523438 L 334.164062 429.523438 C 337.472656 429.523438 340.148438 426.84375 340.148438 423.535156 L 340.148438 413.558594 C 340.148438 410.25 337.472656 407.574219 334.164062 407.574219 L 324.1875 407.574219 C 320.878906 407.574219 318.195312 410.25 318.195312 413.558594 L 318.195312 423.535156" fill="#ffffff"/><path fill-rule="nonzero" fill-opacity="1" d="M 272.59375 423.535156 C 272.59375 426.84375 275.273438 429.523438 278.582031 429.523438 L 288.558594 429.523438 C 291.867188 429.523438 294.550781 426.84375 294.550781 423.535156 L 294.550781 413.558594 C 294.550781 410.25 291.867188 407.574219 288.558594 407.574219 L 278.582031 407.574219 C 275.273438 407.574219 272.59375 410.25 272.59375 413.558594 L 272.59375 423.535156" fill="#ffffff"/><path fill-rule="nonzero" fill-opacity="1" d="M 455.007812 467.585938 C 455.007812 470.898438 457.6875 473.578125 460.996094 473.578125 L 470.972656 473.578125 C 474.28125 473.578125 476.960938 470.898438 476.960938 467.585938 L 476.960938 457.613281 C 476.960938 454.308594 474.28125 451.628906 470.972656 451.628906 L 460.996094 451.628906 C 457.6875 451.628906 455.007812 454.308594 455.007812 457.613281 L 455.007812 467.585938" fill="#ffffff"/><path fill-rule="nonzero" fill-opacity="1" d="M 409.40625 467.585938 C 409.40625 470.898438 412.082031 473.578125 415.390625 473.578125 L 425.367188 473.578125 C 428.675781 473.578125 431.359375 470.898438 431.359375 467.585938 L 431.359375 457.613281 C 431.359375 454.308594 428.675781 451.628906 425.367188 451.628906 L 415.390625 451.628906 C 412.082031 451.628906 409.40625 454.308594 409.40625 457.613281 L 409.40625 467.585938" fill="#ffffff"/><path fill-rule="nonzero" fill-opacity="1" d="M 363.800781 467.585938 C 363.800781 470.898438 366.484375 473.578125 369.785156 473.578125 L 379.769531 473.578125 C 383.078125 473.578125 385.753906 470.898438 385.753906 467.585938 L 385.753906 457.613281 C 385.753906 454.308594 383.078125 451.628906 379.769531 451.628906 L 369.785156 451.628906 C 366.484375 451.628906 363.800781 454.308594 363.800781 457.613281 L 363.800781 467.585938" fill="#ffffff"/><path fill-rule="nonzero" fill-opacity="1" d="M 318.195312 467.585938 C 318.195312 470.898438 320.878906 473.578125 324.1875 473.578125 L 334.164062 473.578125 C 337.472656 473.578125 340.148438 470.898438 340.148438 467.585938 L 340.148438 457.613281 C 340.148438 454.308594 337.472656 451.628906 334.164062 451.628906 L 324.1875 451.628906 C 320.878906 451.628906 318.195312 454.308594 318.195312 457.613281 L 318.195312 467.585938" fill="#ffffff"/><path fill-rule="nonzero" fill-opacity="1" d="M 272.59375 467.585938 C 272.59375 470.898438 275.273438 473.578125 278.582031 473.578125 L 288.558594 473.578125 C 291.867188 473.578125 294.550781 470.898438 294.550781 467.585938 L 294.550781 457.613281 C 294.550781 454.308594 291.867188 451.628906 288.558594 451.628906 L 278.582031 451.628906 C 275.273438 451.628906 272.59375 454.308594 272.59375 457.613281 L 272.59375 467.585938" fill="#ffffff"/><path fill-rule="nonzero" fill-opacity="1" d="M 455.007812 511.640625 C 455.007812 514.957031 457.6875 517.628906 460.996094 517.628906 L 470.972656 517.628906 C 474.28125 517.628906 476.960938 514.957031 476.960938 511.640625 L 476.960938 501.671875 C 476.960938 498.355469 474.28125 495.679688 470.972656 495.679688 L 460.996094 495.679688 C 457.6875 495.679688 455.007812 498.355469 455.007812 501.671875 L 455.007812 511.640625" fill="#ffffff"/><path fill-rule="nonzero" fill-opacity="1" d="M 409.40625 511.640625 C 409.40625 514.957031 412.082031 517.628906 415.390625 517.628906 L 425.367188 517.628906 C 428.675781 517.628906 431.359375 514.957031 431.359375 511.640625 L 431.359375 501.671875 C 431.359375 498.355469 428.675781 495.679688 425.367188 495.679688 L 415.390625 495.679688 C 412.082031 495.679688 409.40625 498.355469 409.40625 501.671875 L 409.40625 511.640625" fill="#ffffff"/><path fill-rule="nonzero" fill-opacity="1" d="M 363.800781 511.640625 C 363.800781 514.957031 366.484375 517.628906 369.785156 517.628906 L 379.769531 517.628906 C 383.078125 517.628906 385.753906 514.957031 385.753906 511.640625 L 385.753906 501.671875 C 385.753906 498.355469 383.078125 495.679688 379.769531 495.679688 L 369.785156 495.679688 C 366.484375 495.679688 363.800781 498.355469 363.800781 501.671875 L 363.800781 511.640625" fill="#ffffff"/><path fill-rule="nonzero" fill-opacity="1" d="M 318.195312 511.640625 C 318.195312 514.957031 320.878906 517.628906 324.1875 517.628906 L 334.164062 517.628906 C 337.472656 517.628906 340.148438 514.957031 340.148438 511.640625 L 340.148438 501.671875 C 340.148438 498.355469 337.472656 495.679688 334.164062 495.679688 L 324.1875 495.679688 C 320.878906 495.679688 318.195312 498.355469 318.195312 501.671875 L 318.195312 511.640625" fill="#ffffff"/><path fill-rule="nonzero" fill-opacity="1" d="M 272.59375 511.640625 C 272.59375 514.957031 275.273438 517.628906 278.582031 517.628906 L 288.558594 517.628906 C 291.867188 517.628906 294.550781 514.957031 294.550781 511.640625 L 294.550781 501.671875 C 294.550781 498.355469 291.867188 495.679688 288.558594 495.679688 L 278.582031 495.679688 C 275.273438 495.679688 272.59375 498.355469 272.59375 501.671875 L 272.59375 511.640625" fill="#ffffff"/><path fill-rule="nonzero" fill-opacity="1" d="M 453.828125 357.742188 C 456.632812 357.742188 458.910156 355.457031 458.910156 352.652344 L 458.910156 327.164062 C 458.910156 324.359375 456.632812 322.074219 453.828125 322.074219 L 443.945312 322.074219 C 441.140625 322.074219 438.863281 324.359375 438.863281 327.164062 L 438.863281 352.652344 C 438.863281 355.457031 441.140625 357.742188 443.945312 357.742188 Z M 404.417969 357.742188 C 407.222656 357.742188 409.503906 355.457031 409.503906 352.652344 L 409.503906 327.164062 C 409.503906 324.359375 407.222656 322.074219 404.417969 322.074219 L 394.539062 322.074219 C 391.734375 322.074219 389.457031 324.359375 389.457031 327.164062 L 389.457031 352.652344 C 389.457031 355.457031 391.734375 357.742188 394.539062 357.742188 Z M 355.015625 357.742188 C 357.820312 357.742188 360.097656 355.457031 360.097656 352.652344 L 360.097656 327.164062 C 360.097656 324.359375 357.820312 322.074219 355.015625 322.074219 L 345.132812 322.074219 C 342.328125 322.074219 340.050781 324.359375 340.050781 327.164062 L 340.050781 352.652344 C 340.050781 355.457031 342.328125 357.742188 345.132812 357.742188 Z M 305.609375 357.742188 C 308.414062 357.742188 310.691406 355.457031 310.691406 352.652344 L 310.691406 327.164062 C 310.691406 324.359375 308.414062 322.074219 305.609375 322.074219 L 295.726562 322.074219 C 292.921875 322.074219 290.644531 324.359375 290.644531 327.164062 L 290.644531 352.652344 C 290.644531 355.457031 292.921875 357.742188 295.726562 357.742188 L 305.609375 357.742188" fill="#63b8b1"/><path fill-rule="nonzero" fill-opacity="1" d="M 443.945312 319.269531 L 453.828125 319.269531 C 458.175781 319.269531 461.714844 322.8125 461.714844 327.164062 L 461.714844 352.652344 C 461.714844 357 458.175781 360.542969 453.828125 360.542969 L 443.945312 360.542969 C 439.597656 360.542969 436.058594 357 436.058594 352.652344 L 436.058594 327.164062 C 436.058594 322.8125 439.597656 319.269531 443.945312 319.269531 Z M 394.539062 319.269531 L 404.417969 319.269531 C 408.769531 319.269531 412.308594 322.8125 412.308594 327.164062 L 412.308594 352.652344 C 412.308594 357 408.769531 360.542969 404.417969 360.542969 L 394.539062 360.542969 C 390.191406 360.542969 386.652344 357 386.652344 352.652344 L 386.652344 327.164062 C 386.652344 322.8125 390.191406 319.269531 394.539062 319.269531 Z M 345.132812 319.269531 L 355.015625 319.269531 C 359.363281 319.269531 362.902344 322.8125 362.902344 327.164062 L 362.902344 352.652344 C 362.902344 357 359.363281 360.542969 355.015625 360.542969 L 345.132812 360.542969 C 340.785156 360.542969 337.246094 357 337.246094 352.652344 L 337.246094 327.164062 C 337.246094 322.8125 340.785156 319.269531 345.132812 319.269531 Z M 295.726562 319.269531 L 305.609375 319.269531 C 309.960938 319.269531 313.496094 322.8125 313.496094 327.164062 L 313.496094 352.652344 C 313.496094 357 309.960938 360.542969 305.609375 360.542969 L 295.726562 360.542969 C 291.378906 360.542969 287.839844 357 287.839844 352.652344 L 287.839844 327.164062 C 287.839844 322.8125 291.378906 319.269531 295.726562 319.269531 Z M 443.945312 324.878906 C 442.683594 324.878906 441.667969 325.902344 441.667969 327.164062 L 441.667969 352.652344 C 441.667969 353.914062 442.683594 354.9375 443.945312 354.9375 L 453.828125 354.9375 C 455.089844 354.9375 456.105469 353.914062 456.105469 352.652344 L 456.105469 327.164062 C 456.105469 325.902344 455.089844 324.878906 453.828125 324.878906 L 443.945312 324.878906 M 394.539062 324.878906 C 393.277344 324.878906 392.261719 325.902344 392.261719 327.164062 L 392.261719 352.652344 C 392.261719 353.914062 393.277344 354.9375 394.539062 354.9375 L 404.417969 354.9375 C 405.683594 354.9375 406.699219 353.914062 406.699219 352.652344 L 406.699219 327.164062 C 406.699219 325.902344 405.683594 324.878906 404.417969 324.878906 L 394.539062 324.878906 M 345.132812 324.878906 C 343.875 324.878906 342.855469 325.902344 342.855469 327.164062 L 342.855469 352.652344 C 342.855469 353.914062 343.875 354.9375 345.132812 354.9375 L 355.015625 354.9375 C 356.269531 354.9375 357.296875 353.914062 357.296875 352.652344 L 357.296875 327.164062 C 357.296875 325.902344 356.269531 324.878906 355.015625 324.878906 L 345.132812 324.878906 M 295.726562 324.878906 C 294.46875 324.878906 293.449219 325.902344 293.449219 327.164062 L 293.449219 352.652344 C 293.449219 353.914062 294.46875 354.9375 295.726562 354.9375 L 305.609375 354.9375 C 306.871094 354.9375 307.890625 353.914062 307.890625 352.652344 L 307.890625 327.164062 C 307.890625 325.902344 306.871094 324.878906 305.609375 324.878906 L 295.726562 324.878906" fill="#ffffff"/><path fill-rule="nonzero" fill-opacity="1" d="M 489.660156 415.09375 C 530.632812 415.09375 563.964844 381.757812 563.964844 340.785156 C 563.964844 299.8125 530.632812 266.480469 489.660156 266.480469 C 448.6875 266.480469 415.351562 299.8125 415.351562 340.785156 C 415.351562 381.757812 448.6875 415.09375 489.660156 415.09375" fill="#63b8b1"/><g clip-path="url(#044e9a0c70)"><path fill-rule="nonzero" fill-opacity="1" d="M 489.660156 263.675781 C 532.175781 263.675781 566.769531 298.265625 566.769531 340.785156 C 566.769531 383.304688 532.175781 417.894531 489.660156 417.894531 C 447.140625 417.894531 412.550781 383.304688 412.550781 340.785156 C 412.550781 298.265625 447.140625 263.675781 489.660156 263.675781 Z M 489.660156 269.285156 C 450.171875 269.285156 418.15625 301.292969 418.15625 340.785156 C 418.15625 380.273438 450.171875 412.289062 489.660156 412.289062 C 529.148438 412.289062 561.160156 380.273438 561.160156 340.785156 C 561.160156 301.292969 529.148438 269.285156 489.660156 269.285156" fill="#ffffff"/></g><path fill-rule="nonzero" fill-opacity="1" d="M 429.480469 340.785156 C 429.480469 307.546875 456.425781 280.609375 489.660156 280.609375 C 522.894531 280.609375 549.835938 307.546875 549.835938 340.785156 C 549.835938 374.023438 522.894531 400.964844 489.660156 400.964844 C 456.425781 400.964844 429.480469 374.023438 429.480469 340.785156" fill="#63b8b1"/><path stroke-miterlimit="10" stroke-opacity="1" stroke-width="40" stroke="#ffffff" d="M 1941.375611 2594.551433 C 1941.375611 2831.647235 1749.168907 3023.79821 1512.100969 3023.79821 C 1275.033032 3023.79821 1082.854192 2831.647235 1082.854192 2594.551433 C 1082.854192 2357.455631 1275.033032 2165.276792 1512.100969 2165.276792 C 1749.168907 2165.276792 1941.375611 2357.455631 1941.375611 2594.551433 Z M 1941.375611 2594.551433" stroke-linejoin="round" fill="none" transform="matrix(-0.140189, 0, 0, -0.140189, 701.640448, 704.513361)" stroke-linecap="round"/><path stroke-miterlimit="10" stroke-opacity="1" stroke-width="40" stroke="#ffffff" d="M 1512.100969 2971.831625 L 1512.100969 2906.88036" stroke-linejoin="round" fill="none" transform="matrix(-0.140189, 0, 0, -0.140189, 701.640448, 704.513361)" stroke-linecap="round"/><path stroke-miterlimit="10" stroke-opacity="1" stroke-width="40" stroke="#ffffff" d="M 1512.100969 2282.222506 L 1512.100969 2217.271241" stroke-linejoin="round" fill="none" transform="matrix(-0.140189, 0, 0, -0.140189, 701.640448, 704.513361)" stroke-linecap="round"/><path stroke-miterlimit="10" stroke-opacity="1" stroke-width="40" stroke="#ffffff" d="M 1134.792913 2594.551433 L 1199.772042 2594.551433" stroke-linejoin="round" fill="none" transform="matrix(-0.140189, 0, 0, -0.140189, 701.640448, 704.513361)" stroke-linecap="round"/><path stroke-miterlimit="10" stroke-opacity="1" stroke-width="40" stroke="#ffffff" d="M 1824.402032 2594.551433 L 1889.381162 2594.551433" stroke-linejoin="round" fill="none" transform="matrix(-0.140189, 0, 0, -0.140189, 701.640448, 704.513361)" stroke-linecap="round"/><path stroke-miterlimit="10" stroke-opacity="1" stroke-width="40" stroke="#ffffff" d="M 1484.766267 2621.913999 L 1306.491624 2800.160779" stroke-linejoin="round" fill-rule="nonzero" fill="#63b8b1" fill-opacity="1" transform="matrix(-0.140189, 0, 0, -0.140189, 701.640448, 704.513361)" stroke-linecap="round"/><path stroke-miterlimit="10" stroke-opacity="1" stroke-width="40" stroke="#ffffff" d="M 1512.100969 2633.254697 L 1512.100969 2772.71462" stroke-linejoin="round" fill="none" transform="matrix(-0.140189, 0, 0, -0.140189, 701.640448, 704.513361)" stroke-linecap="round"/><path fill-rule="nonzero" fill-opacity="1" d="M 484.230469 340.785156 C 484.230469 337.792969 486.664062 335.359375 489.660156 335.359375 C 492.65625 335.359375 495.085938 337.792969 495.085938 340.785156 C 495.085938 343.78125 492.65625 346.207031 489.660156 346.207031 C 486.664062 346.207031 484.230469 343.78125 484.230469 340.785156" fill="#ffffff"/><script xmlns=""/></svg>