<svg xmlns:xlink="http://www.w3.org/1999/xlink" xmlns="http://www.w3.org/2000/svg" version="1.0" preserveAspectRatio="xMidYMid meet" height="1080" viewBox="0 0 810 809.999993" zoomAndPan="magnify" width="1080"><defs><clipPath id="f46cc63b42"><path clip-rule="nonzero" d="M 245.835938 243 L 563.835938 243 L 563.835938 499 L 245.835938 499 Z M 245.835938 243"/></clipPath><clipPath id="5faabd0d31"><path clip-rule="nonzero" d="M 245.835938 243 L 563.835938 243 L 563.835938 499 L 245.835938 499 Z M 245.835938 243"/></clipPath><clipPath id="922059b917"><path clip-rule="nonzero" d="M 245.835938 243 L 563.835938 243 L 563.835938 499 L 245.835938 499 Z M 245.835938 243"/></clipPath></defs><g clip-path="url(#f46cc63b42)"><path fill-rule="nonzero" fill-opacity="1" d="M 533.507812 498.015625 L 276.492188 498.015625 C 259.609375 498.015625 245.867188 484.277344 245.867188 467.394531 L 245.867188 265.144531 C 245.867188 252.933594 255.800781 243 268.015625 243 L 541.984375 243 C 554.199219 243 564.128906 252.933594 564.128906 265.144531 L 564.128906 467.394531 C 564.128906 484.277344 550.390625 498.015625 533.507812 498.015625 Z M 268.015625 253.382812 C 261.53125 253.382812 256.25 258.65625 256.25 265.144531 L 256.25 467.394531 C 256.25 478.554688 265.332031 487.632812 276.492188 487.632812 L 533.507812 487.632812 C 544.667969 487.632812 553.746094 478.554688 553.746094 467.394531 L 553.746094 265.144531 C 553.746094 258.660156 548.46875 253.382812 541.984375 253.382812 Z M 268.015625 253.382812" fill="#63b8b1"/></g><path fill-rule="nonzero" fill-opacity="1" d="M 477.230469 567 L 332.769531 567 C 321.207031 567 311.800781 557.59375 311.800781 546.027344 C 311.800781 534.464844 321.207031 525.058594 332.769531 525.058594 L 340.96875 525.058594 L 355.152344 490.835938 C 355.960938 488.898438 357.851562 487.632812 359.949219 487.632812 L 450.050781 487.632812 C 452.148438 487.632812 454.039062 488.898438 454.847656 490.835938 L 469.03125 525.058594 L 477.230469 525.058594 C 488.792969 525.058594 498.199219 534.464844 498.199219 546.027344 C 498.199219 557.59375 488.792969 567 477.230469 567 Z M 332.769531 535.441406 C 326.933594 535.441406 322.183594 540.191406 322.183594 546.027344 C 322.183594 551.867188 326.933594 556.617188 332.769531 556.617188 L 477.230469 556.617188 C 483.0625 556.617188 487.8125 551.867188 487.8125 546.027344 C 487.8125 540.191406 483.0625 535.441406 477.230469 535.441406 L 465.5625 535.441406 C 463.464844 535.441406 461.574219 534.175781 460.765625 532.234375 L 446.582031 498.015625 L 363.417969 498.015625 L 349.230469 532.234375 C 348.425781 534.175781 346.535156 535.441406 344.433594 535.441406 Z M 332.769531 535.441406" fill="#63b8b1"/><path fill-rule="nonzero" fill-opacity="1" d="M 392.171875 535.441406 L 344.4375 535.441406 C 341.566406 535.441406 339.246094 533.117188 339.246094 530.25 C 339.246094 527.382812 341.566406 525.058594 344.4375 525.058594 L 392.171875 525.058594 C 395.042969 525.058594 397.363281 527.382812 397.363281 530.25 C 397.363281 533.117188 395.042969 535.441406 392.171875 535.441406 Z M 392.171875 535.441406" fill="#63b8b1"/><path fill-rule="nonzero" fill-opacity="1" d="M 465.5625 535.441406 L 429.761719 535.441406 C 426.890625 535.441406 424.570312 533.117188 424.570312 530.25 C 424.570312 527.382812 426.890625 525.058594 429.761719 525.058594 L 465.5625 525.058594 C 468.433594 525.058594 470.753906 527.382812 470.753906 530.25 C 470.753906 533.117188 468.433594 535.441406 465.5625 535.441406 Z M 465.5625 535.441406" fill="#63b8b1"/><path fill-rule="nonzero" fill-opacity="1" d="M 437.769531 473.066406 L 372.226562 473.066406 C 366.070312 473.066406 360.414062 469.960938 357.117188 464.761719 L 354.429688 460.539062 L 283.941406 460.539062 C 278.742188 460.539062 274.511719 456.304688 274.511719 451.105469 L 274.511719 281.714844 C 274.511719 278.847656 276.835938 276.523438 279.703125 276.523438 C 282.574219 276.523438 284.894531 278.847656 284.894531 281.714844 L 284.894531 450.15625 L 357.28125 450.15625 C 359.054688 450.15625 360.707031 451.0625 361.660156 452.5625 L 365.875 459.195312 C 367.265625 461.378906 369.636719 462.683594 372.226562 462.683594 L 437.769531 462.683594 C 440.359375 462.683594 442.734375 461.378906 444.121094 459.195312 L 448.335938 452.5625 C 449.289062 451.0625 450.941406 450.15625 452.714844 450.15625 L 525.101562 450.15625 L 525.101562 281.714844 C 525.101562 278.847656 527.421875 276.523438 530.292969 276.523438 C 533.160156 276.523438 535.484375 278.847656 535.484375 281.714844 L 535.484375 451.105469 C 535.484375 456.304688 531.253906 460.539062 526.054688 460.539062 L 455.566406 460.539062 L 452.882812 464.761719 C 449.582031 469.960938 443.929688 473.066406 437.769531 473.066406 Z M 437.769531 473.066406" fill="#63b8b1"/><path fill-rule="nonzero" fill-opacity="1" d="M 361.140625 360.015625 C 344.515625 360.015625 330.996094 346.492188 330.996094 329.871094 L 330.996094 323.449219 C 330.996094 306.828125 344.515625 293.304688 361.140625 293.304688 C 377.765625 293.304688 391.285156 306.828125 391.285156 323.449219 L 391.285156 329.871094 C 391.285156 346.492188 377.765625 360.015625 361.140625 360.015625 Z M 361.140625 303.683594 C 350.246094 303.683594 341.378906 312.550781 341.378906 323.449219 L 341.378906 329.871094 C 341.378906 340.769531 350.246094 349.632812 361.140625 349.632812 C 372.035156 349.632812 380.902344 340.769531 380.902344 329.871094 L 380.902344 323.449219 C 380.902344 312.550781 372.035156 303.683594 361.140625 303.683594 Z M 361.140625 303.683594" fill="#63b8b1"/><path fill-rule="nonzero" fill-opacity="1" d="M 397.230469 431.410156 L 325.054688 431.410156 C 316.648438 431.410156 309.808594 424.570312 309.808594 416.164062 L 309.808594 391.277344 C 309.808594 370.015625 322.21875 350.949219 341.425781 342.714844 C 343.390625 341.871094 345.648438 342.320312 347.148438 343.820312 C 354.636719 351.335938 367.710938 351.316406 375.1875 343.761719 C 376.683594 342.261719 378.9375 341.8125 380.875 342.625 C 400.078125 350.632812 412.476562 369.21875 412.476562 389.972656 L 412.476562 416.164062 C 412.476562 424.570312 405.636719 431.410156 397.230469 431.410156 Z M 342.609375 353.648438 C 329.078125 360.8125 320.191406 375.535156 320.191406 391.277344 L 320.191406 416.164062 C 320.191406 418.84375 322.371094 421.027344 325.054688 421.027344 L 397.230469 421.027344 C 399.914062 421.027344 402.09375 418.84375 402.09375 416.164062 L 402.09375 389.972656 C 402.09375 374.496094 393.441406 360.527344 379.792969 353.554688 C 369.214844 361.90625 353.191406 361.933594 342.609375 353.648438 Z M 342.609375 353.648438" fill="#63b8b1"/><path fill-rule="nonzero" fill-opacity="1" d="M 383.40625 431.410156 C 380.539062 431.410156 378.214844 429.082031 378.214844 426.21875 L 378.214844 386.816406 C 378.214844 383.949219 380.539062 381.625 383.40625 381.625 C 386.277344 381.625 388.597656 383.949219 388.597656 386.816406 L 388.597656 426.21875 C 388.597656 429.085938 386.277344 431.410156 383.40625 431.410156 Z M 383.40625 431.410156" fill="#63b8b1"/><path fill-rule="nonzero" fill-opacity="1" d="M 338.878906 431.410156 C 336.007812 431.410156 333.6875 429.082031 333.6875 426.21875 L 333.6875 386.816406 C 333.6875 383.949219 336.007812 381.625 338.878906 381.625 C 341.75 381.625 344.070312 383.949219 344.070312 386.816406 L 344.070312 426.21875 C 344.070312 429.085938 341.75 431.410156 338.878906 431.410156 Z M 338.878906 431.410156" fill="#63b8b1"/><path fill-rule="nonzero" fill-opacity="1" d="M 484.160156 431.410156 L 302.773438 431.410156 C 299.902344 431.410156 297.582031 429.082031 297.582031 426.21875 C 297.582031 423.351562 299.902344 421.027344 302.773438 421.027344 L 484.160156 421.027344 C 487.027344 421.027344 489.351562 423.351562 489.351562 426.21875 C 489.351562 429.085938 487.027344 431.410156 484.160156 431.410156 Z M 484.160156 431.410156" fill="#63b8b1"/><path fill-rule="nonzero" fill-opacity="1" d="M 434.175781 367.058594 C 433.207031 367.058594 432.238281 366.789062 431.390625 366.25 C 429.890625 365.300781 428.984375 363.644531 428.984375 361.867188 L 428.984375 346.292969 C 415.5625 339.023438 407.65625 327.46875 407.65625 314.867188 C 407.65625 293.472656 430.859375 276.066406 459.386719 276.066406 C 487.914062 276.066406 511.121094 293.472656 511.121094 314.867188 C 511.121094 335.179688 491.023438 351.644531 464.203125 353.472656 L 436.386719 366.566406 C 435.679688 366.894531 434.929688 367.058594 434.175781 367.058594 Z M 459.386719 286.449219 C 436.589844 286.449219 418.039062 299.199219 418.039062 314.867188 C 418.039062 324.238281 424.894531 333.03125 436.371094 338.390625 C 438.199219 339.246094 439.367188 341.078125 439.367188 343.09375 L 439.367188 353.6875 L 460.683594 343.65625 C 461.292969 343.371094 461.949219 343.203125 462.617188 343.167969 C 483.992188 342.015625 500.734375 329.585938 500.734375 314.867188 C 500.738281 299.199219 482.1875 286.449219 459.386719 286.449219 Z M 459.386719 286.449219" fill="#63b8b1"/><path fill-rule="nonzero" fill-opacity="1" d="M 477.136719 313.757812 L 441.339844 313.757812 C 438.46875 313.757812 436.148438 311.433594 436.148438 308.566406 C 436.148438 305.703125 438.46875 303.378906 441.339844 303.378906 L 477.136719 303.378906 C 480.007812 303.378906 482.328125 305.703125 482.328125 308.566406 C 482.328125 311.433594 480.007812 313.757812 477.136719 313.757812 Z M 477.136719 313.757812" fill="#63b8b1"/><path fill-rule="nonzero" fill-opacity="1" d="M 470.972656 331.851562 L 447.503906 331.851562 C 444.636719 331.851562 442.3125 329.527344 442.3125 326.660156 C 442.3125 323.792969 444.636719 321.46875 447.503906 321.46875 L 470.972656 321.46875 C 473.84375 321.46875 476.164062 323.792969 476.164062 326.660156 C 476.164062 329.527344 473.84375 331.851562 470.972656 331.851562 Z M 470.972656 331.851562" fill="#63b8b1"/><g clip-path="url(#5faabd0d31)"><path fill-rule="nonzero" fill-opacity="1" d="M 533.507812 498.015625 L 276.492188 498.015625 C 259.609375 498.015625 245.867188 484.277344 245.867188 467.394531 L 245.867188 265.144531 C 245.867188 252.933594 255.800781 243 268.015625 243 L 541.984375 243 C 554.199219 243 564.128906 252.933594 564.128906 265.144531 L 564.128906 467.394531 C 564.128906 484.277344 550.390625 498.015625 533.507812 498.015625 Z M 268.015625 253.382812 C 261.53125 253.382812 256.25 258.65625 256.25 265.144531 L 256.25 467.394531 C 256.25 478.554688 265.332031 487.632812 276.492188 487.632812 L 533.507812 487.632812 C 544.667969 487.632812 553.746094 478.554688 553.746094 467.394531 L 553.746094 265.144531 C 553.746094 258.660156 548.46875 253.382812 541.984375 253.382812 Z M 268.015625 253.382812" fill="#63b8b1"/></g><path fill-rule="nonzero" fill-opacity="1" d="M 477.230469 567 L 332.769531 567 C 321.207031 567 311.800781 557.59375 311.800781 546.027344 C 311.800781 534.464844 321.207031 525.058594 332.769531 525.058594 L 340.96875 525.058594 L 355.152344 490.835938 C 355.960938 488.898438 357.851562 487.632812 359.949219 487.632812 L 450.050781 487.632812 C 452.148438 487.632812 454.039062 488.898438 454.847656 490.835938 L 469.03125 525.058594 L 477.230469 525.058594 C 488.792969 525.058594 498.199219 534.464844 498.199219 546.027344 C 498.199219 557.59375 488.792969 567 477.230469 567 Z M 332.769531 535.441406 C 326.933594 535.441406 322.183594 540.191406 322.183594 546.027344 C 322.183594 551.867188 326.933594 556.617188 332.769531 556.617188 L 477.230469 556.617188 C 483.0625 556.617188 487.8125 551.867188 487.8125 546.027344 C 487.8125 540.191406 483.0625 535.441406 477.230469 535.441406 L 465.5625 535.441406 C 463.464844 535.441406 461.574219 534.175781 460.765625 532.234375 L 446.582031 498.015625 L 363.417969 498.015625 L 349.230469 532.234375 C 348.425781 534.175781 346.535156 535.441406 344.433594 535.441406 Z M 332.769531 535.441406" fill="#63b8b1"/><path fill-rule="nonzero" fill-opacity="1" d="M 392.171875 535.441406 L 344.4375 535.441406 C 341.566406 535.441406 339.246094 533.117188 339.246094 530.25 C 339.246094 527.382812 341.566406 525.058594 344.4375 525.058594 L 392.171875 525.058594 C 395.042969 525.058594 397.363281 527.382812 397.363281 530.25 C 397.363281 533.117188 395.042969 535.441406 392.171875 535.441406 Z M 392.171875 535.441406" fill="#63b8b1"/><path fill-rule="nonzero" fill-opacity="1" d="M 465.5625 535.441406 L 429.761719 535.441406 C 426.890625 535.441406 424.570312 533.117188 424.570312 530.25 C 424.570312 527.382812 426.890625 525.058594 429.761719 525.058594 L 465.5625 525.058594 C 468.433594 525.058594 470.753906 527.382812 470.753906 530.25 C 470.753906 533.117188 468.433594 535.441406 465.5625 535.441406 Z M 465.5625 535.441406" fill="#63b8b1"/><path fill-rule="nonzero" fill-opacity="1" d="M 437.769531 473.066406 L 372.226562 473.066406 C 366.070312 473.066406 360.414062 469.960938 357.117188 464.761719 L 354.429688 460.539062 L 283.941406 460.539062 C 278.742188 460.539062 274.511719 456.304688 274.511719 451.105469 L 274.511719 281.714844 C 274.511719 278.847656 276.835938 276.523438 279.703125 276.523438 C 282.574219 276.523438 284.894531 278.847656 284.894531 281.714844 L 284.894531 450.15625 L 357.28125 450.15625 C 359.054688 450.15625 360.707031 451.0625 361.660156 452.5625 L 365.875 459.195312 C 367.265625 461.378906 369.636719 462.683594 372.226562 462.683594 L 437.769531 462.683594 C 440.359375 462.683594 442.734375 461.378906 444.121094 459.195312 L 448.335938 452.5625 C 449.289062 451.0625 450.941406 450.15625 452.714844 450.15625 L 525.101562 450.15625 L 525.101562 281.714844 C 525.101562 278.847656 527.421875 276.523438 530.292969 276.523438 C 533.160156 276.523438 535.484375 278.847656 535.484375 281.714844 L 535.484375 451.105469 C 535.484375 456.304688 531.253906 460.539062 526.054688 460.539062 L 455.566406 460.539062 L 452.882812 464.761719 C 449.582031 469.960938 443.929688 473.066406 437.769531 473.066406 Z M 437.769531 473.066406" fill="#63b8b1"/><path fill-rule="nonzero" fill-opacity="1" d="M 361.140625 360.015625 C 344.515625 360.015625 330.996094 346.492188 330.996094 329.871094 L 330.996094 323.449219 C 330.996094 306.828125 344.515625 293.304688 361.140625 293.304688 C 377.765625 293.304688 391.285156 306.828125 391.285156 323.449219 L 391.285156 329.871094 C 391.285156 346.492188 377.765625 360.015625 361.140625 360.015625 Z M 361.140625 303.683594 C 350.246094 303.683594 341.378906 312.550781 341.378906 323.449219 L 341.378906 329.871094 C 341.378906 340.769531 350.246094 349.632812 361.140625 349.632812 C 372.035156 349.632812 380.902344 340.769531 380.902344 329.871094 L 380.902344 323.449219 C 380.902344 312.550781 372.035156 303.683594 361.140625 303.683594 Z M 361.140625 303.683594" fill="#63b8b1"/><path fill-rule="nonzero" fill-opacity="1" d="M 397.230469 431.410156 L 325.054688 431.410156 C 316.648438 431.410156 309.808594 424.570312 309.808594 416.164062 L 309.808594 391.277344 C 309.808594 370.015625 322.21875 350.949219 341.425781 342.714844 C 343.390625 341.871094 345.648438 342.320312 347.148438 343.820312 C 354.636719 351.335938 367.710938 351.316406 375.1875 343.761719 C 376.683594 342.261719 378.9375 341.8125 380.875 342.625 C 400.078125 350.632812 412.476562 369.21875 412.476562 389.972656 L 412.476562 416.164062 C 412.476562 424.570312 405.636719 431.410156 397.230469 431.410156 Z M 342.609375 353.648438 C 329.078125 360.8125 320.191406 375.535156 320.191406 391.277344 L 320.191406 416.164062 C 320.191406 418.84375 322.371094 421.027344 325.054688 421.027344 L 397.230469 421.027344 C 399.914062 421.027344 402.09375 418.84375 402.09375 416.164062 L 402.09375 389.972656 C 402.09375 374.496094 393.441406 360.527344 379.792969 353.554688 C 369.214844 361.90625 353.191406 361.933594 342.609375 353.648438 Z M 342.609375 353.648438" fill="#63b8b1"/><path fill-rule="nonzero" fill-opacity="1" d="M 383.40625 431.410156 C 380.539062 431.410156 378.214844 429.082031 378.214844 426.21875 L 378.214844 386.816406 C 378.214844 383.949219 380.539062 381.625 383.40625 381.625 C 386.277344 381.625 388.597656 383.949219 388.597656 386.816406 L 388.597656 426.21875 C 388.597656 429.085938 386.277344 431.410156 383.40625 431.410156 Z M 383.40625 431.410156" fill="#63b8b1"/><path fill-rule="nonzero" fill-opacity="1" d="M 338.878906 431.410156 C 336.007812 431.410156 333.6875 429.082031 333.6875 426.21875 L 333.6875 386.816406 C 333.6875 383.949219 336.007812 381.625 338.878906 381.625 C 341.75 381.625 344.070312 383.949219 344.070312 386.816406 L 344.070312 426.21875 C 344.070312 429.085938 341.75 431.410156 338.878906 431.410156 Z M 338.878906 431.410156" fill="#63b8b1"/><path fill-rule="nonzero" fill-opacity="1" d="M 484.160156 431.410156 L 302.773438 431.410156 C 299.902344 431.410156 297.582031 429.082031 297.582031 426.21875 C 297.582031 423.351562 299.902344 421.027344 302.773438 421.027344 L 484.160156 421.027344 C 487.027344 421.027344 489.351562 423.351562 489.351562 426.21875 C 489.351562 429.085938 487.027344 431.410156 484.160156 431.410156 Z M 484.160156 431.410156" fill="#63b8b1"/><path fill-rule="nonzero" fill-opacity="1" d="M 434.175781 367.058594 C 433.207031 367.058594 432.238281 366.789062 431.390625 366.25 C 429.890625 365.300781 428.984375 363.644531 428.984375 361.867188 L 428.984375 346.292969 C 415.5625 339.023438 407.65625 327.46875 407.65625 314.867188 C 407.65625 293.472656 430.859375 276.066406 459.386719 276.066406 C 487.914062 276.066406 511.121094 293.472656 511.121094 314.867188 C 511.121094 335.179688 491.023438 351.644531 464.203125 353.472656 L 436.386719 366.566406 C 435.679688 366.894531 434.929688 367.058594 434.175781 367.058594 Z M 459.386719 286.449219 C 436.589844 286.449219 418.039062 299.199219 418.039062 314.867188 C 418.039062 324.238281 424.894531 333.03125 436.371094 338.390625 C 438.199219 339.246094 439.367188 341.078125 439.367188 343.09375 L 439.367188 353.6875 L 460.683594 343.65625 C 461.292969 343.371094 461.949219 343.203125 462.617188 343.167969 C 483.992188 342.015625 500.734375 329.585938 500.734375 314.867188 C 500.738281 299.199219 482.1875 286.449219 459.386719 286.449219 Z M 459.386719 286.449219" fill="#63b8b1"/><path fill-rule="nonzero" fill-opacity="1" d="M 477.136719 313.757812 L 441.339844 313.757812 C 438.46875 313.757812 436.148438 311.433594 436.148438 308.566406 C 436.148438 305.703125 438.46875 303.378906 441.339844 303.378906 L 477.136719 303.378906 C 480.007812 303.378906 482.328125 305.703125 482.328125 308.566406 C 482.328125 311.433594 480.007812 313.757812 477.136719 313.757812 Z M 477.136719 313.757812" fill="#63b8b1"/><path fill-rule="nonzero" fill-opacity="1" d="M 470.972656 331.851562 L 447.503906 331.851562 C 444.636719 331.851562 442.3125 329.527344 442.3125 326.660156 C 442.3125 323.792969 444.636719 321.46875 447.503906 321.46875 L 470.972656 321.46875 C 473.84375 321.46875 476.164062 323.792969 476.164062 326.660156 C 476.164062 329.527344 473.84375 331.851562 470.972656 331.851562 Z M 470.972656 331.851562" fill="#63b8b1"/><g clip-path="url(#922059b917)"><path fill-rule="nonzero" fill-opacity="1" d="M 533.507812 498.015625 L 276.492188 498.015625 C 259.609375 498.015625 245.867188 484.277344 245.867188 467.394531 L 245.867188 265.144531 C 245.867188 252.933594 255.800781 243 268.015625 243 L 541.984375 243 C 554.199219 243 564.128906 252.933594 564.128906 265.144531 L 564.128906 467.394531 C 564.128906 484.277344 550.390625 498.015625 533.507812 498.015625 Z M 268.015625 253.382812 C 261.53125 253.382812 256.25 258.65625 256.25 265.144531 L 256.25 467.394531 C 256.25 478.554688 265.332031 487.632812 276.492188 487.632812 L 533.507812 487.632812 C 544.667969 487.632812 553.746094 478.554688 553.746094 467.394531 L 553.746094 265.144531 C 553.746094 258.660156 548.46875 253.382812 541.984375 253.382812 Z M 268.015625 253.382812" fill="#63b8b1"/></g><path fill-rule="nonzero" fill-opacity="1" d="M 477.230469 567 L 332.769531 567 C 321.207031 567 311.800781 557.59375 311.800781 546.027344 C 311.800781 534.464844 321.207031 525.058594 332.769531 525.058594 L 340.96875 525.058594 L 355.152344 490.835938 C 355.960938 488.898438 357.851562 487.632812 359.949219 487.632812 L 450.050781 487.632812 C 452.148438 487.632812 454.039062 488.898438 454.847656 490.835938 L 469.03125 525.058594 L 477.230469 525.058594 C 488.792969 525.058594 498.199219 534.464844 498.199219 546.027344 C 498.199219 557.59375 488.792969 567 477.230469 567 Z M 332.769531 535.441406 C 326.933594 535.441406 322.183594 540.191406 322.183594 546.027344 C 322.183594 551.867188 326.933594 556.617188 332.769531 556.617188 L 477.230469 556.617188 C 483.0625 556.617188 487.8125 551.867188 487.8125 546.027344 C 487.8125 540.191406 483.0625 535.441406 477.230469 535.441406 L 465.5625 535.441406 C 463.464844 535.441406 461.574219 534.175781 460.765625 532.234375 L 446.582031 498.015625 L 363.417969 498.015625 L 349.230469 532.234375 C 348.425781 534.175781 346.535156 535.441406 344.433594 535.441406 Z M 332.769531 535.441406" fill="#63b8b1"/><path fill-rule="nonzero" fill-opacity="1" d="M 392.171875 535.441406 L 344.4375 535.441406 C 341.566406 535.441406 339.246094 533.117188 339.246094 530.25 C 339.246094 527.382812 341.566406 525.058594 344.4375 525.058594 L 392.171875 525.058594 C 395.042969 525.058594 397.363281 527.382812 397.363281 530.25 C 397.363281 533.117188 395.042969 535.441406 392.171875 535.441406 Z M 392.171875 535.441406" fill="#63b8b1"/><path fill-rule="nonzero" fill-opacity="1" d="M 465.5625 535.441406 L 429.761719 535.441406 C 426.890625 535.441406 424.570312 533.117188 424.570312 530.25 C 424.570312 527.382812 426.890625 525.058594 429.761719 525.058594 L 465.5625 525.058594 C 468.433594 525.058594 470.753906 527.382812 470.753906 530.25 C 470.753906 533.117188 468.433594 535.441406 465.5625 535.441406 Z M 465.5625 535.441406" fill="#63b8b1"/><path fill-rule="nonzero" fill-opacity="1" d="M 437.769531 473.066406 L 372.226562 473.066406 C 366.070312 473.066406 360.414062 469.960938 357.117188 464.761719 L 354.429688 460.539062 L 283.941406 460.539062 C 278.742188 460.539062 274.511719 456.304688 274.511719 451.105469 L 274.511719 281.714844 C 274.511719 278.847656 276.835938 276.523438 279.703125 276.523438 C 282.574219 276.523438 284.894531 278.847656 284.894531 281.714844 L 284.894531 450.15625 L 357.28125 450.15625 C 359.054688 450.15625 360.707031 451.0625 361.660156 452.5625 L 365.875 459.195312 C 367.265625 461.378906 369.636719 462.683594 372.226562 462.683594 L 437.769531 462.683594 C 440.359375 462.683594 442.734375 461.378906 444.121094 459.195312 L 448.335938 452.5625 C 449.289062 451.0625 450.941406 450.15625 452.714844 450.15625 L 525.101562 450.15625 L 525.101562 281.714844 C 525.101562 278.847656 527.421875 276.523438 530.292969 276.523438 C 533.160156 276.523438 535.484375 278.847656 535.484375 281.714844 L 535.484375 451.105469 C 535.484375 456.304688 531.253906 460.539062 526.054688 460.539062 L 455.566406 460.539062 L 452.882812 464.761719 C 449.582031 469.960938 443.929688 473.066406 437.769531 473.066406 Z M 437.769531 473.066406" fill="#63b8b1"/><path fill-rule="nonzero" fill-opacity="1" d="M 361.140625 360.015625 C 344.515625 360.015625 330.996094 346.492188 330.996094 329.871094 L 330.996094 323.449219 C 330.996094 306.828125 344.515625 293.304688 361.140625 293.304688 C 377.765625 293.304688 391.285156 306.828125 391.285156 323.449219 L 391.285156 329.871094 C 391.285156 346.492188 377.765625 360.015625 361.140625 360.015625 Z M 361.140625 303.683594 C 350.246094 303.683594 341.378906 312.550781 341.378906 323.449219 L 341.378906 329.871094 C 341.378906 340.769531 350.246094 349.632812 361.140625 349.632812 C 372.035156 349.632812 380.902344 340.769531 380.902344 329.871094 L 380.902344 323.449219 C 380.902344 312.550781 372.035156 303.683594 361.140625 303.683594 Z M 361.140625 303.683594" fill="#63b8b1"/><path fill-rule="nonzero" fill-opacity="1" d="M 397.230469 431.410156 L 325.054688 431.410156 C 316.648438 431.410156 309.808594 424.570312 309.808594 416.164062 L 309.808594 391.277344 C 309.808594 370.015625 322.21875 350.949219 341.425781 342.714844 C 343.390625 341.871094 345.648438 342.320312 347.148438 343.820312 C 354.636719 351.335938 367.710938 351.316406 375.1875 343.761719 C 376.683594 342.261719 378.9375 341.8125 380.875 342.625 C 400.078125 350.632812 412.476562 369.21875 412.476562 389.972656 L 412.476562 416.164062 C 412.476562 424.570312 405.636719 431.410156 397.230469 431.410156 Z M 342.609375 353.648438 C 329.078125 360.8125 320.191406 375.535156 320.191406 391.277344 L 320.191406 416.164062 C 320.191406 418.84375 322.371094 421.027344 325.054688 421.027344 L 397.230469 421.027344 C 399.914062 421.027344 402.09375 418.84375 402.09375 416.164062 L 402.09375 389.972656 C 402.09375 374.496094 393.441406 360.527344 379.792969 353.554688 C 369.214844 361.90625 353.191406 361.933594 342.609375 353.648438 Z M 342.609375 353.648438" fill="#63b8b1"/><path fill-rule="nonzero" fill-opacity="1" d="M 383.40625 431.410156 C 380.539062 431.410156 378.214844 429.082031 378.214844 426.21875 L 378.214844 386.816406 C 378.214844 383.949219 380.539062 381.625 383.40625 381.625 C 386.277344 381.625 388.597656 383.949219 388.597656 386.816406 L 388.597656 426.21875 C 388.597656 429.085938 386.277344 431.410156 383.40625 431.410156 Z M 383.40625 431.410156" fill="#63b8b1"/><path fill-rule="nonzero" fill-opacity="1" d="M 338.878906 431.410156 C 336.007812 431.410156 333.6875 429.082031 333.6875 426.21875 L 333.6875 386.816406 C 333.6875 383.949219 336.007812 381.625 338.878906 381.625 C 341.75 381.625 344.070312 383.949219 344.070312 386.816406 L 344.070312 426.21875 C 344.070312 429.085938 341.75 431.410156 338.878906 431.410156 Z M 338.878906 431.410156" fill="#63b8b1"/><path fill-rule="nonzero" fill-opacity="1" d="M 484.160156 431.410156 L 302.773438 431.410156 C 299.902344 431.410156 297.582031 429.082031 297.582031 426.21875 C 297.582031 423.351562 299.902344 421.027344 302.773438 421.027344 L 484.160156 421.027344 C 487.027344 421.027344 489.351562 423.351562 489.351562 426.21875 C 489.351562 429.085938 487.027344 431.410156 484.160156 431.410156 Z M 484.160156 431.410156" fill="#63b8b1"/><path fill-rule="nonzero" fill-opacity="1" d="M 434.175781 367.058594 C 433.207031 367.058594 432.238281 366.789062 431.390625 366.25 C 429.890625 365.300781 428.984375 363.644531 428.984375 361.867188 L 428.984375 346.292969 C 415.5625 339.023438 407.65625 327.46875 407.65625 314.867188 C 407.65625 293.472656 430.859375 276.066406 459.386719 276.066406 C 487.914062 276.066406 511.121094 293.472656 511.121094 314.867188 C 511.121094 335.179688 491.023438 351.644531 464.203125 353.472656 L 436.386719 366.566406 C 435.679688 366.894531 434.929688 367.058594 434.175781 367.058594 Z M 459.386719 286.449219 C 436.589844 286.449219 418.039062 299.199219 418.039062 314.867188 C 418.039062 324.238281 424.894531 333.03125 436.371094 338.390625 C 438.199219 339.246094 439.367188 341.078125 439.367188 343.09375 L 439.367188 353.6875 L 460.683594 343.65625 C 461.292969 343.371094 461.949219 343.203125 462.617188 343.167969 C 483.992188 342.015625 500.734375 329.585938 500.734375 314.867188 C 500.738281 299.199219 482.1875 286.449219 459.386719 286.449219 Z M 459.386719 286.449219" fill="#63b8b1"/><path fill-rule="nonzero" fill-opacity="1" d="M 477.136719 313.757812 L 441.339844 313.757812 C 438.46875 313.757812 436.148438 311.433594 436.148438 308.566406 C 436.148438 305.703125 438.46875 303.378906 441.339844 303.378906 L 477.136719 303.378906 C 480.007812 303.378906 482.328125 305.703125 482.328125 308.566406 C 482.328125 311.433594 480.007812 313.757812 477.136719 313.757812 Z M 477.136719 313.757812" fill="#63b8b1"/><path fill-rule="nonzero" fill-opacity="1" d="M 470.972656 331.851562 L 447.503906 331.851562 C 444.636719 331.851562 442.3125 329.527344 442.3125 326.660156 C 442.3125 323.792969 444.636719 321.46875 447.503906 321.46875 L 470.972656 321.46875 C 473.84375 321.46875 476.164062 323.792969 476.164062 326.660156 C 476.164062 329.527344 473.84375 331.851562 470.972656 331.851562 Z M 470.972656 331.851562" fill="#63b8b1"/><script xmlns=""/></svg>