<svg xmlns:xlink="http://www.w3.org/1999/xlink" xmlns="http://www.w3.org/2000/svg" version="1.0" preserveAspectRatio="xMidYMid meet" height="1080" viewBox="0 0 810 809.999993" zoomAndPan="magnify" width="1080"><path fill-rule="nonzero" fill-opacity="1" d="M 376.398438 400.695312 C 378.929688 406.519531 383.484375 410.820312 388.546875 412.339844 C 388.800781 412.847656 388.800781 414.367188 388.800781 415.125 C 389.054688 417.402344 389.054688 419.679688 390.320312 422.210938 C 392.089844 425.757812 394.875 427.273438 396.898438 428.539062 C 399.179688 429.804688 400.695312 430.820312 401.710938 434.109375 C 402.976562 438.160156 405.757812 441.449219 409.050781 442.96875 C 411.835938 444.234375 414.617188 443.726562 416.644531 443.726562 C 417.402344 443.726562 418.164062 443.476562 418.667969 443.476562 C 420.695312 443.476562 422.972656 445.246094 425.25 447.523438 C 427.023438 449.042969 429.046875 450.816406 431.324219 452.082031 C 433.351562 453.09375 435.882812 453.851562 438.414062 453.851562 C 440.945312 453.851562 443.726562 453.09375 445.753906 451.070312 C 447.523438 449.296875 448.285156 447.273438 448.789062 445.753906 C 449.042969 445.246094 449.296875 444.234375 449.296875 444.234375 C 449.550781 443.980469 450.816406 443.980469 451.828125 443.980469 C 454.359375 443.726562 458.15625 443.476562 460.6875 440.4375 C 462.207031 438.664062 462.710938 436.386719 463.21875 434.867188 C 465.242188 426.769531 466.761719 417.402344 462.964844 409.304688 C 466.257812 406.519531 467.523438 401.710938 466.507812 395.886719 C 466.003906 392.851562 465.242188 389.054688 462.207031 386.269531 C 458.914062 383.484375 455.878906 383.738281 453.601562 385.003906 C 453.09375 384.496094 452.335938 383.738281 451.828125 383.230469 C 451.070312 382.472656 450.308594 381.710938 449.804688 380.953125 C 446.511719 377.664062 440.691406 376.144531 436.132812 377.410156 C 431.832031 378.675781 428.539062 378.675781 425.757812 378.421875 C 424.996094 378.421875 424.492188 378.421875 423.984375 378.421875 C 413.605469 378.167969 410.570312 374.625 410.570312 374.625 C 410.316406 374.117188 409.808594 371.839844 409.304688 370.574219 C 408.039062 365.765625 405.757812 355.894531 395.886719 357.414062 C 392.851562 357.917969 390.824219 359.183594 389.304688 359.945312 C 389.054688 360.195312 388.800781 360.195312 388.546875 360.449219 C 388.039062 360.449219 388.039062 360.449219 387.789062 360.449219 C 386.015625 359.691406 384.242188 359.4375 380.953125 360.195312 C 377.664062 360.957031 376.144531 362.726562 375.382812 363.992188 C 373.359375 367.539062 374.625 371.585938 375.636719 375.132812 C 376.144531 376.398438 376.648438 378.675781 376.648438 379.433594 C 373.613281 386.015625 373.359375 393.609375 376.398438 400.695312 Z M 376.398438 400.695312" fill="#63b8b1"/><path fill-rule="nonzero" fill-opacity="1" d="M 567 291.09375 C 567 264.515625 538.648438 243 503.71875 243 C 468.789062 243 440.4375 264.515625 440.4375 291.09375 C 440.4375 311.851562 457.902344 330.074219 483.46875 336.65625 C 481.949219 341.71875 477.648438 347.035156 469.800781 348.554688 C 467.015625 349.3125 465.242188 351.84375 465.75 354.628906 C 466.003906 355.640625 466.507812 356.398438 467.015625 357.160156 C 467.773438 357.917969 468.789062 358.425781 469.800781 358.679688 C 472.585938 359.183594 475.367188 359.4375 478.152344 359.4375 C 499.164062 359.4375 516.882812 346.023438 522.195312 337.164062 C 548.773438 331.085938 567 312.355469 567 291.09375 Z M 517.640625 327.796875 C 515.867188 328.050781 514.351562 329.570312 513.84375 331.339844 C 513.085938 334.125 503.210938 344.25 489.039062 348.046875 C 492.328125 343.742188 494.101562 338.429688 494.101562 332.859375 C 494.101562 330.328125 492.328125 328.304688 490.050781 327.796875 C 466.761719 323.492188 450.5625 308.304688 450.5625 291.09375 C 450.5625 270.085938 474.355469 253.125 503.71875 253.125 C 533.082031 253.125 556.875 270.085938 556.875 291.09375 C 556.875 308.054688 540.675781 323.242188 517.640625 327.796875 Z M 517.640625 327.796875" fill="#63b8b1"/><path fill-rule="nonzero" fill-opacity="1" d="M 364.246094 309.570312 C 366.523438 319.949219 376.648438 320.203125 382.21875 320.203125 C 385.257812 320.203125 388.292969 320.203125 390.066406 321.214844 C 392.34375 322.480469 392.851562 324.253906 393.609375 327.796875 C 394.621094 332.859375 396.394531 340.199219 408.289062 341.71875 C 408.542969 342.226562 408.796875 343.238281 409.050781 343.996094 C 409.808594 346.273438 410.570312 349.058594 412.847656 351.085938 C 417.65625 356.148438 424.996094 355.640625 430.058594 353.867188 C 432.589844 352.855469 434.867188 351.589844 436.894531 350.324219 C 438.414062 349.3125 439.929688 348.554688 441.449219 347.792969 C 443.980469 346.78125 446.511719 346.527344 448.03125 347.289062 C 448.03125 347.792969 448.285156 348.804688 448.285156 349.566406 C 448.539062 352.351562 448.789062 355.894531 451.320312 358.929688 C 453.347656 361.210938 456.132812 362.222656 458.664062 363.234375 C 457.144531 361.460938 456.132812 359.183594 455.625 356.652344 C 454.105469 349.820312 457.648438 342.984375 463.472656 339.945312 C 444.234375 330.074219 431.578125 313.117188 430.3125 293.878906 C 422.210938 292.105469 413.605469 291.09375 405 291.09375 C 342.226562 291.09375 291.09375 342.226562 291.09375 405 C 291.09375 420.695312 294.132812 435.375 299.953125 449.042969 C 311.851562 442.714844 326.785156 438.917969 341.71875 441.449219 C 345.007812 441.957031 347.792969 443.476562 350.070312 445.753906 C 350.324219 446.007812 350.324219 446.007812 350.578125 446.257812 C 350.832031 446.007812 351.085938 445.753906 351.335938 445.5 C 356.90625 441.449219 361.210938 435.628906 362.726562 429.300781 C 363.742188 425.503906 362.980469 421.707031 362.726562 418.414062 C 362.222656 415.378906 361.96875 412.847656 362.726562 410.820312 C 362.980469 410.0625 363.488281 409.304688 364.246094 408.542969 C 365.257812 407.277344 366.273438 405.757812 367.03125 403.734375 C 369.308594 397.660156 366.777344 390.824219 360.703125 386.269531 C 358.425781 384.496094 357.664062 381.460938 358.425781 378.675781 L 358.425781 378.421875 C 359.183594 375.890625 360.195312 372.601562 358.929688 369.054688 C 355.132812 359.4375 348.046875 354.375 338.429688 355.132812 C 337.667969 354.628906 335.898438 352.097656 334.882812 350.324219 C 332.605469 346.78125 329.570312 341.972656 325.011719 339.441406 C 335.136719 326.53125 348.804688 316.152344 364.246094 309.570312 Z M 364.246094 309.570312" fill="#63b8b1"/><path fill-rule="nonzero" fill-opacity="1" d="M 510.046875 360.957031 C 500.679688 366.019531 489.542969 369.5625 477.898438 369.5625 C 474.609375 369.5625 471.570312 369.308594 468.28125 368.804688 C 467.015625 368.550781 466.003906 368.296875 464.738281 367.789062 C 465.242188 369.054688 465.496094 370.574219 465.75 371.839844 C 466.507812 376.902344 468.027344 382.726562 472.332031 387.027344 C 475.117188 389.8125 479.417969 391.835938 483.46875 391.835938 C 486.507812 391.835938 489.289062 390.824219 491.820312 388.800781 C 493.085938 387.789062 494.101562 386.269531 494.605469 385.257812 C 495.113281 384.75 495.617188 383.738281 495.871094 383.484375 C 496.632812 383.484375 498.65625 384.75 499.921875 385.507812 C 501.945312 386.773438 504.730469 388.546875 507.515625 389.054688 C 508.273438 394.117188 508.78125 399.429688 508.78125 404.746094 C 508.78125 432.335938 497.898438 457.398438 480.429688 475.875 C 478.40625 474.609375 475.875 474.101562 473.089844 474.101562 C 473.089844 474.101562 472.835938 474.101562 472.835938 474.101562 L 471.570312 474.101562 C 470.558594 474.101562 468.027344 474.101562 467.773438 473.851562 C 467.523438 473.597656 467.269531 473.34375 467.015625 473.089844 C 466.003906 471.824219 464.484375 469.546875 461.445312 468.789062 C 457.144531 467.773438 453.601562 470.8125 452.335938 471.824219 L 445.5 477.898438 C 441.957031 481.191406 440.945312 480.683594 440.945312 480.683594 C 440.4375 480.429688 439.425781 479.417969 438.917969 478.660156 C 436.894531 476.632812 433.855469 473.089844 428.792969 474.101562 C 426.515625 474.609375 424.742188 475.875 423.730469 476.632812 L 422.71875 477.394531 C 416.898438 481.949219 411.582031 486 405.507812 488.53125 C 404.242188 489.039062 402.976562 489.542969 401.710938 490.050781 C 398.164062 491.316406 394.621094 492.328125 391.332031 494.859375 C 387.789062 497.390625 384.75 501.695312 383.992188 506.25 C 381.964844 505.742188 379.941406 505.238281 378.167969 504.730469 C 379.179688 508.273438 379.941406 511.820312 380.195312 515.617188 C 388.292969 517.386719 396.898438 518.398438 405.507812 518.398438 C 468.28125 518.398438 519.414062 467.269531 519.414062 404.492188 C 518.90625 389.304688 515.867188 374.625 510.046875 360.957031 Z M 510.046875 360.957031" fill="#63b8b1"/><path fill-rule="nonzero" fill-opacity="1" d="M 306.28125 567 C 341.210938 567 369.5625 545.484375 369.5625 518.90625 C 369.5625 498.148438 352.097656 479.925781 326.53125 473.34375 C 328.050781 468.28125 332.351562 462.964844 340.199219 461.445312 C 342.984375 460.941406 344.757812 458.15625 344.25 455.371094 C 343.996094 454.359375 343.492188 453.601562 342.984375 452.839844 C 342.226562 452.082031 341.210938 451.574219 340.199219 451.320312 C 315.648438 447.019531 293.878906 462.710938 287.804688 472.835938 C 261.226562 478.914062 243 497.644531 243 518.90625 C 243 545.484375 271.351562 567 306.28125 567 Z M 292.359375 482.203125 C 294.132812 481.949219 295.648438 480.429688 296.15625 478.660156 C 296.914062 475.875 306.789062 465.75 320.960938 461.953125 C 317.671875 466.257812 315.898438 471.570312 315.898438 477.140625 C 315.898438 479.671875 317.671875 481.695312 319.949219 482.203125 C 343.238281 486.757812 359.4375 501.695312 359.4375 518.90625 C 359.4375 539.914062 335.644531 556.875 306.28125 556.875 C 276.917969 556.875 253.125 539.914062 253.125 518.90625 C 253.125 501.945312 269.324219 486.757812 292.359375 482.203125 Z M 292.359375 482.203125" fill="#63b8b1"/><path fill-rule="nonzero" fill-opacity="1" d="M 508.273438 268.820312 C 508.273438 268.820312 508.273438 268.566406 508.023438 268.566406 C 508.023438 268.3125 507.769531 268.3125 507.769531 268.058594 C 507.769531 267.804688 507.515625 267.804688 507.515625 267.804688 C 507.515625 267.554688 507.261719 267.554688 507.261719 267.300781 C 507.261719 267.300781 507.007812 267.046875 507.007812 267.046875 C 507.007812 267.046875 506.757812 266.792969 506.503906 266.792969 C 506.25 266.792969 506.25 266.539062 505.996094 266.539062 C 505.996094 266.539062 505.742188 266.539062 505.742188 266.289062 C 505.492188 266.289062 505.492188 266.289062 505.238281 266.035156 C 504.984375 266.035156 504.984375 266.035156 504.730469 266.035156 C 504.476562 266.035156 504.476562 266.035156 504.226562 266.035156 C 503.972656 266.035156 503.972656 266.035156 503.71875 266.035156 C 503.71875 266.035156 503.464844 266.035156 503.464844 266.035156 C 503.210938 266.035156 502.960938 266.035156 502.707031 266.035156 C 502.707031 266.035156 502.453125 266.035156 502.453125 266.035156 C 502.199219 266.035156 501.945312 266.035156 501.695312 266.289062 C 501.695312 266.289062 501.441406 266.289062 501.441406 266.539062 C 501.1875 266.539062 500.933594 266.792969 500.933594 266.792969 C 500.933594 266.792969 500.679688 267.046875 500.679688 267.046875 C 500.429688 267.046875 500.429688 267.300781 500.175781 267.300781 C 500.175781 267.300781 499.921875 267.554688 499.921875 267.554688 C 499.921875 267.804688 499.667969 267.804688 499.667969 268.058594 C 499.667969 268.3125 499.414062 268.3125 499.414062 268.566406 C 499.414062 268.566406 499.414062 268.820312 499.164062 268.820312 L 483.976562 304.257812 C 482.960938 306.789062 483.976562 309.824219 486.507812 310.835938 C 487.265625 311.089844 487.773438 311.34375 488.53125 311.34375 C 490.554688 311.34375 492.328125 310.078125 493.085938 308.304688 L 495.113281 303.75 L 512.324219 303.75 L 514.351562 308.304688 C 515.109375 310.332031 517.132812 311.34375 518.90625 311.34375 C 519.664062 311.34375 520.171875 311.089844 520.929688 310.835938 C 523.460938 309.824219 524.726562 306.789062 523.460938 304.257812 Z M 499.414062 293.625 L 503.71875 283.753906 L 508.023438 293.625 Z M 499.414062 293.625" fill="#63b8b1"/><path fill-rule="nonzero" fill-opacity="1" d="M 286.03125 544.21875 C 291.347656 544.21875 296.410156 542.699219 300.964844 539.914062 C 305.773438 542.699219 311.34375 544.21875 316.40625 544.21875 C 319.191406 544.21875 321.46875 541.941406 321.46875 539.15625 C 321.46875 536.371094 319.191406 534.09375 316.40625 534.09375 C 314.128906 534.09375 311.851562 533.585938 309.320312 532.828125 C 315.648438 525.488281 320.203125 515.363281 321.214844 503.71875 L 324 503.71875 C 326.785156 503.71875 329.0625 501.441406 329.0625 498.65625 C 329.0625 495.871094 326.785156 493.59375 324 493.59375 L 288.5625 493.59375 C 285.777344 493.59375 283.5 495.871094 283.5 498.65625 C 283.5 501.441406 285.777344 503.71875 288.5625 503.71875 L 311.089844 503.71875 C 310.078125 513.335938 306.28125 521.945312 300.964844 527.257812 C 298.179688 524.476562 296.15625 520.679688 296.15625 516.375 C 296.15625 513.589844 293.878906 511.3125 291.09375 511.3125 C 288.308594 511.3125 286.03125 513.589844 286.03125 516.375 C 286.03125 522.703125 288.5625 528.523438 292.359375 532.828125 C 290.335938 533.585938 288.308594 534.09375 286.03125 534.09375 C 283.246094 534.09375 280.96875 536.371094 280.96875 539.15625 C 280.96875 541.941406 283.246094 544.21875 286.03125 544.21875 Z M 286.03125 544.21875" fill="#63b8b1"/><script xmlns=""/></svg>