<svg xmlns:xlink="http://www.w3.org/1999/xlink" xmlns="http://www.w3.org/2000/svg" version="1.0" preserveAspectRatio="xMidYMid meet" height="1080" viewBox="0 0 810 809.999993" zoomAndPan="magnify" width="1080"><defs><clipPath id="6f3ed4fa9f"><path clip-rule="nonzero" d="M 266.894531 243 L 542.894531 243 L 542.894531 567 L 266.894531 567 Z M 266.894531 243"/></clipPath></defs><g clip-path="url(#6f3ed4fa9f)"><path fill-rule="nonzero" fill-opacity="1" d="M 524.515625 421.316406 L 524.515625 371.761719 L 514.058594 375.796875 L 495.457031 357.476562 L 480.027344 367.65625 C 472.035156 357.113281 459.378906 348.515625 443.949219 343.066406 C 455.363281 332.539062 462.570312 317.511719 462.570312 300.792969 C 462.570312 269.042969 436.742188 243.210938 404.996094 243.210938 C 373.246094 243.210938 347.417969 269.039062 347.417969 300.785156 C 347.417969 317.484375 354.605469 332.492188 365.996094 343.019531 C 350.535156 348.46875 337.898438 357.054688 329.902344 367.609375 L 314.535156 357.46875 L 295.933594 375.789062 L 285.472656 371.761719 L 285.472656 421.320312 C 274.855469 424.191406 266.921875 435.148438 266.921875 448.210938 C 266.921875 461.277344 274.855469 472.226562 285.472656 475.101562 L 285.472656 520.707031 L 404.996094 566.820312 L 524.515625 520.703125 L 524.515625 475.101562 C 535.136719 472.226562 543.070312 461.277344 543.070312 448.210938 C 543.070312 435.140625 535.136719 424.1875 524.515625 421.316406 Z M 494.078125 371.585938 L 502.773438 380.148438 L 450.609375 400.277344 Z M 358.4375 300.789062 C 358.4375 275.117188 379.320312 254.230469 404.996094 254.230469 C 430.667969 254.230469 451.550781 275.117188 451.550781 300.785156 C 451.550781 326.457031 430.667969 347.347656 404.996094 347.347656 C 379.320312 347.347656 358.4375 326.464844 358.4375 300.789062 Z M 315.914062 371.585938 L 359.382812 400.277344 L 307.214844 380.148438 Z M 277.941406 448.207031 C 277.941406 439.03125 283.792969 431.574219 290.984375 431.574219 C 298.175781 431.574219 304.03125 439.035156 304.03125 448.207031 C 304.03125 457.378906 298.179688 464.839844 290.984375 464.839844 C 283.789062 464.84375 277.941406 457.382812 277.941406 448.207031 Z M 399.484375 552.882812 L 296.492188 513.148438 L 296.492188 475.128906 C 296.613281 475.097656 296.722656 475.035156 296.84375 474.996094 C 299.246094 474.304688 301.5 473.199219 303.558594 471.738281 C 303.71875 471.625 303.882812 471.519531 304.042969 471.402344 C 305.011719 470.679688 305.925781 469.875 306.792969 469.003906 C 306.953125 468.839844 307.113281 468.671875 307.269531 468.503906 C 308.125 467.59375 308.941406 466.625 309.675781 465.585938 C 309.753906 465.476562 309.824219 465.355469 309.902344 465.242188 C 310.605469 464.210938 311.25 463.121094 311.820312 461.976562 C 311.886719 461.847656 311.957031 461.726562 312.019531 461.597656 C 312.589844 460.421875 313.070312 459.1875 313.484375 457.910156 C 313.5625 457.671875 313.644531 457.433594 313.714844 457.1875 C 314.097656 455.917969 314.40625 454.605469 314.625 453.261719 C 314.660156 453.035156 314.6875 452.800781 314.714844 452.570312 C 314.914062 451.148438 315.042969 449.699219 315.042969 448.210938 C 315.042969 446.722656 314.910156 445.277344 314.714844 443.851562 C 314.683594 443.621094 314.660156 443.390625 314.625 443.160156 C 314.40625 441.8125 314.097656 440.5 313.714844 439.230469 C 313.644531 438.988281 313.5625 438.75 313.484375 438.507812 C 313.070312 437.238281 312.589844 436 312.023438 434.824219 C 311.957031 434.691406 311.882812 434.570312 311.816406 434.441406 C 311.246094 433.300781 310.605469 432.214844 309.902344 431.183594 C 309.828125 431.066406 309.753906 430.945312 309.671875 430.828125 C 308.9375 429.789062 308.125 428.820312 307.269531 427.914062 C 307.113281 427.746094 306.953125 427.578125 306.789062 427.410156 C 305.925781 426.542969 305.011719 425.738281 304.042969 425.015625 C 303.878906 424.898438 303.710938 424.789062 303.550781 424.675781 C 301.496094 423.222656 299.246094 422.117188 296.84375 421.421875 C 296.722656 421.382812 296.613281 421.320312 296.488281 421.285156 L 296.488281 387.816406 L 399.484375 427.558594 Z M 339.113281 373.695312 C 347.054688 363.523438 360.566406 355.511719 377.15625 351.152344 C 385.414062 355.734375 394.898438 358.367188 404.996094 358.367188 C 415.089844 358.367188 424.574219 355.734375 432.835938 351.152344 C 449.351562 355.496094 462.878906 363.554688 470.832031 373.726562 L 404.996094 417.175781 Z M 513.5 513.148438 L 410.503906 552.882812 L 410.503906 427.558594 L 513.5 387.820312 L 513.5 421.320312 C 502.878906 424.191406 494.941406 435.144531 494.941406 448.210938 C 494.941406 461.277344 502.878906 472.226562 513.5 475.101562 Z M 519.007812 464.84375 C 511.816406 464.84375 505.960938 457.382812 505.960938 448.210938 C 505.960938 439.035156 511.8125 431.578125 519.007812 431.578125 C 526.203125 431.578125 532.054688 439.039062 532.054688 448.210938 C 532.050781 457.382812 526.199219 464.84375 519.007812 464.84375 Z M 519.007812 464.84375" fill="#63b8b1"/></g><script xmlns=""/></svg>