<svg xmlns:xlink="http://www.w3.org/1999/xlink" xmlns="http://www.w3.org/2000/svg" version="1.0" preserveAspectRatio="xMidYMid meet" height="1080" viewBox="0 0 810 809.999993" zoomAndPan="magnify" width="1080"><defs><clipPath id="e44f8e2db0"><path clip-rule="nonzero" d="M 395 494 L 560.871094 494 L 560.871094 567 L 395 567 Z M 395 494"/></clipPath><clipPath id="c76fcd00a1"><path clip-rule="nonzero" d="M 249.117188 370 L 415 370 L 415 436 L 249.117188 436 Z M 249.117188 370"/></clipPath></defs><g clip-path="url(#e44f8e2db0)"><path fill-rule="evenodd" fill-opacity="1" d="M 528.316406 501.347656 L 458.3125 501.347656 L 431.597656 494.667969 L 395.179688 501.347656 L 395.179688 506.726562 C 415.035156 519.585938 415.035156 548.65625 395.179688 561.515625 L 395.179688 566.894531 L 528.316406 566.894531 C 546.34375 566.894531 561.089844 552.144531 561.089844 534.121094 C 561.089844 516.09375 546.34375 501.347656 528.316406 501.347656 Z M 528.316406 501.347656" fill="#63b8b1"/></g><path fill-rule="evenodd" fill-opacity="1" d="M 406.601562 548.8125 L 528.503906 548.8125 C 536.5625 548.8125 543.195312 542.175781 543.195312 534.121094 C 543.195312 526.066406 536.5625 519.429688 528.503906 519.429688 L 406.601562 519.429688 C 411.257812 528.640625 411.257812 539.601562 406.601562 548.8125 Z M 406.601562 548.8125" fill="#ffbf31"/><path fill-rule="evenodd" fill-opacity="1" d="M 471.703125 294.246094 C 471.703125 306.128906 481.335938 315.757812 493.214844 315.757812 C 505.097656 315.757812 514.726562 306.128906 514.726562 294.246094 L 515.046875 269.132812 L 471.382812 269.132812 Z M 471.703125 294.246094" fill="#f0b16e"/><path fill-rule="evenodd" fill-opacity="1" d="M 366.65625 243.105469 L 353 285.410156 L 308.546875 285.324219 L 344.5625 311.382812 L 330.742188 353.632812 L 366.65625 327.4375 L 402.570312 353.632812 L 388.75 311.382812 L 424.765625 285.324219 L 380.3125 285.410156 Z M 366.65625 243.105469" fill="#ffbf31"/><path fill-rule="evenodd" fill-opacity="1" d="M 554.027344 482.015625 C 560.796875 495.957031 540.84375 517.261719 526.785156 484.152344 L 493.171875 404.988281 L 457.027344 398.691406 L 464.839844 422.527344 C 468.09375 432.460938 449.046875 443.582031 443.480469 427.84375 L 427.597656 382.96875 C 424.273438 373.578125 458.472656 371.148438 468.109375 370.304688 L 482.820312 369.015625 L 472.480469 348.054688 C 469.722656 342.46875 467.960938 341.257812 461.960938 339.574219 L 401.292969 322.574219 C 388.84375 319.082031 387.121094 315.125 386.710938 310.996094 C 386.214844 306.011719 389.105469 301.234375 396.695312 302.753906 L 469 317.21875 C 473.222656 318.066406 476.792969 319.039062 480.820312 318.210938 L 488.59375 316.609375 C 499.3125 314.398438 510.636719 321.5 513.800781 332.414062 C 517.734375 345.988281 528.25 374.210938 526.332031 386.8125 C 524.5625 398.457031 548.253906 468.222656 554.027344 482.015625 Z M 554.027344 482.015625" fill="#63b8b1"/><path fill-rule="evenodd" fill-opacity="1" d="M 459.394531 501.347656 L 326.257812 501.347656 L 326.257812 495.96875 C 346.113281 483.109375 346.113281 454.039062 326.257812 441.179688 L 326.257812 435.800781 L 364.210938 427.503906 L 382.625 435.800781 L 459.394531 435.800781 C 477.421875 435.800781 492.167969 450.550781 492.167969 468.574219 C 492.167969 486.601562 477.421875 501.347656 459.394531 501.347656 Z M 459.394531 501.347656" fill="#63b8b1"/><path fill-rule="evenodd" fill-opacity="1" d="M 337.679688 453.882812 L 459.582031 453.882812 C 467.640625 453.882812 474.273438 460.519531 474.273438 468.574219 C 474.273438 476.628906 467.640625 483.265625 459.582031 483.265625 L 337.679688 483.265625 C 342.335938 474.054688 342.335938 463.097656 337.679688 453.882812 Z M 337.679688 453.882812" fill="#ffbf31"/><g clip-path="url(#c76fcd00a1)"><path fill-rule="evenodd" fill-opacity="1" d="M 381.964844 370.253906 L 248.828125 370.253906 L 248.828125 375.632812 C 268.683594 388.492188 268.683594 417.566406 248.828125 430.425781 L 248.828125 435.800781 L 381.964844 435.800781 C 399.992188 435.800781 414.738281 421.054688 414.738281 403.027344 C 414.738281 385.003906 399.992188 370.253906 381.964844 370.253906 Z M 381.964844 370.253906" fill="#63b8b1"/></g><path fill-rule="evenodd" fill-opacity="1" d="M 260.25 417.71875 L 382.152344 417.71875 C 390.207031 417.71875 396.84375 411.085938 396.84375 403.027344 C 396.84375 394.972656 390.207031 388.339844 382.152344 388.339844 L 260.25 388.339844 C 264.902344 397.550781 264.90625 408.507812 260.25 417.71875 Z M 260.25 417.71875" fill="#ffbf31"/><path fill-rule="evenodd" fill-opacity="1" d="M 490.046875 254.566406 L 454.035156 270.332031 C 452.445312 270.882812 451.304688 272.390625 451.304688 274.167969 L 451.304688 290.078125 C 451.304688 292.320312 453.121094 294.140625 455.363281 294.140625 C 457.605469 294.140625 459.425781 292.320312 459.425781 290.078125 L 459.425781 280.363281 L 490.046875 293.769531 C 491.121094 294.238281 492.285156 294.203125 493.28125 293.769531 L 529.582031 277.878906 C 532.878906 276.4375 532.738281 271.835938 529.582031 270.457031 L 493.28125 254.566406 C 492.207031 254.097656 491.042969 254.132812 490.046875 254.566406 Z M 490.046875 254.566406" fill="#847784"/><script xmlns=""/></svg>