<svg xmlns:xlink="http://www.w3.org/1999/xlink" xmlns="http://www.w3.org/2000/svg" version="1.0" preserveAspectRatio="xMidYMid meet" height="1080" viewBox="0 0 810 809.999993" zoomAndPan="magnify" width="1080"><path fill-rule="nonzero" fill-opacity="1" d="M 405 243 C 404.105469 242.988281 403.21875 243.0625 402.339844 243.226562 C 401.460938 243.390625 400.605469 243.640625 399.773438 243.972656 C 398.945312 244.304688 398.15625 244.71875 397.40625 245.207031 C 396.660156 245.699219 395.96875 246.257812 395.328125 246.886719 C 394.691406 247.515625 394.125 248.199219 393.621094 248.941406 C 393.121094 249.679688 392.699219 250.464844 392.355469 251.289062 C 392.007812 252.113281 391.746094 252.964844 391.570312 253.84375 C 391.394531 254.71875 391.308594 255.605469 391.308594 256.5 C 391.308594 257.394531 391.394531 258.28125 391.570312 259.15625 C 391.746094 260.035156 392.007812 260.886719 392.355469 261.710938 C 392.699219 262.535156 393.121094 263.320312 393.621094 264.058594 C 394.125 264.800781 394.691406 265.484375 395.328125 266.113281 C 395.96875 266.742188 396.660156 267.300781 397.40625 267.792969 C 398.15625 268.28125 398.945312 268.695312 399.773438 269.027344 C 400.605469 269.359375 401.460938 269.609375 402.339844 269.773438 C 403.21875 269.9375 404.105469 270.011719 405 270 C 479.714844 270 540 330.285156 540 405 C 540 479.714844 479.714844 540 405 540 C 404.105469 539.988281 403.21875 540.0625 402.339844 540.226562 C 401.460938 540.390625 400.605469 540.640625 399.773438 540.972656 C 398.945312 541.304688 398.15625 541.71875 397.40625 542.207031 C 396.660156 542.699219 395.96875 543.257812 395.328125 543.886719 C 394.691406 544.515625 394.125 545.199219 393.621094 545.941406 C 393.121094 546.679688 392.699219 547.464844 392.355469 548.289062 C 392.007812 549.113281 391.746094 549.964844 391.570312 550.84375 C 391.394531 551.71875 391.308594 552.605469 391.308594 553.5 C 391.308594 554.394531 391.394531 555.28125 391.570312 556.15625 C 391.746094 557.035156 392.007812 557.886719 392.355469 558.710938 C 392.699219 559.535156 393.121094 560.320312 393.621094 561.058594 C 394.125 561.800781 394.691406 562.484375 395.328125 563.113281 C 395.96875 563.742188 396.660156 564.300781 397.40625 564.792969 C 398.15625 565.28125 398.945312 565.695312 399.773438 566.027344 C 400.605469 566.359375 401.460938 566.609375 402.339844 566.773438 C 403.21875 566.9375 404.105469 567.011719 405 567 C 494.308594 567 567 494.308594 567 405 C 567 315.691406 494.308594 243 405 243 Z M 348.257812 254.3125 C 346.441406 254.300781 344.691406 254.644531 343.011719 255.339844 C 342.191406 255.679688 341.414062 256.09375 340.675781 256.582031 C 339.941406 257.074219 339.257812 257.632812 338.632812 258.257812 C 338.003906 258.882812 337.445312 259.566406 336.953125 260.300781 C 336.457031 261.035156 336.042969 261.8125 335.703125 262.628906 C 335.363281 263.449219 335.105469 264.289062 334.929688 265.160156 C 334.753906 266.027344 334.667969 266.902344 334.664062 267.789062 C 334.664062 268.675781 334.75 269.550781 334.917969 270.421875 C 335.089844 271.289062 335.34375 272.132812 335.679688 272.953125 C 336.019531 273.773438 336.433594 274.550781 336.925781 275.289062 C 337.417969 276.027344 337.976562 276.710938 338.601562 277.339844 C 339.230469 277.96875 339.910156 278.527344 340.648438 279.023438 C 341.382812 279.515625 342.164062 279.933594 342.980469 280.273438 C 343.800781 280.613281 344.644531 280.871094 345.515625 281.046875 C 346.382812 281.21875 347.261719 281.308594 348.148438 281.308594 C 349.035156 281.308594 349.914062 281.222656 350.785156 281.050781 C 351.65625 280.878906 352.5 280.621094 353.320312 280.285156 C 354.140625 279.945312 354.917969 279.53125 355.65625 279.039062 C 356.394531 278.546875 357.078125 277.988281 357.707031 277.363281 C 358.335938 276.734375 358.894531 276.054688 359.390625 275.316406 C 359.882812 274.578125 360.300781 273.800781 360.640625 272.984375 C 360.980469 272.164062 361.238281 271.320312 361.414062 270.449219 C 361.585938 269.578125 361.675781 268.699219 361.675781 267.8125 C 361.675781 266.925781 361.589844 266.046875 361.417969 265.179688 C 361.246094 264.308594 360.988281 263.464844 360.648438 262.644531 C 360.140625 261.417969 359.46875 260.289062 358.625 259.261719 C 357.785156 258.234375 356.8125 257.347656 355.710938 256.609375 C 354.609375 255.867188 353.421875 255.300781 352.152344 254.910156 C 350.882812 254.519531 349.585938 254.320312 348.257812 254.3125 Z M 300.191406 286.507812 C 298.367188 286.480469 296.613281 286.8125 294.925781 287.5 C 293.238281 288.183594 291.75 289.171875 290.460938 290.460938 C 289.835938 291.085938 289.273438 291.769531 288.78125 292.507812 C 288.289062 293.242188 287.875 294.019531 287.535156 294.839844 C 287.195312 295.660156 286.941406 296.503906 286.765625 297.371094 C 286.59375 298.242188 286.507812 299.121094 286.507812 300.007812 C 286.507812 300.890625 286.59375 301.769531 286.765625 302.640625 C 286.941406 303.507812 287.195312 304.351562 287.535156 305.171875 C 287.875 305.992188 288.289062 306.769531 288.78125 307.503906 C 289.273438 308.242188 289.835938 308.925781 290.460938 309.550781 C 291.085938 310.175781 291.769531 310.738281 292.507812 311.230469 C 293.242188 311.722656 294.019531 312.136719 294.839844 312.476562 C 295.660156 312.816406 296.503906 313.070312 297.371094 313.246094 C 298.242188 313.417969 299.121094 313.503906 300.003906 313.503906 C 300.890625 313.503906 301.769531 313.417969 302.640625 313.246094 C 303.507812 313.070312 304.351562 312.816406 305.171875 312.476562 C 305.992188 312.136719 306.769531 311.722656 307.503906 311.230469 C 308.242188 310.738281 308.925781 310.175781 309.550781 309.550781 C 310.175781 308.925781 310.738281 308.242188 311.230469 307.503906 C 311.722656 306.769531 312.136719 305.992188 312.476562 305.171875 C 312.816406 304.351562 313.070312 303.507812 313.246094 302.640625 C 313.417969 301.769531 313.503906 300.890625 313.503906 300.007812 C 313.503906 299.121094 313.417969 298.242188 313.246094 297.371094 C 313.070312 296.503906 312.816406 295.660156 312.476562 294.839844 C 312.136719 294.019531 311.722656 293.242188 311.230469 292.507812 C 310.738281 291.769531 310.175781 291.085938 309.550781 290.460938 C 308.308594 289.21875 306.875 288.253906 305.257812 287.570312 C 303.636719 286.882812 301.949219 286.53125 300.191406 286.507812 Z M 268.101562 334.679688 C 267.425781 334.664062 266.753906 334.699219 266.082031 334.785156 C 265.410156 334.875 264.75 335.011719 264.101562 335.195312 C 263.453125 335.382812 262.820312 335.613281 262.203125 335.894531 C 261.589844 336.175781 261 336.503906 260.433594 336.871094 C 259.867188 337.242188 259.332031 337.652344 258.828125 338.101562 C 258.320312 338.550781 257.855469 339.035156 257.421875 339.554688 C 256.992188 340.078125 256.601562 340.625 256.25 341.207031 C 255.902344 341.785156 255.597656 342.386719 255.339844 343.011719 C 255 343.828125 254.746094 344.671875 254.570312 345.542969 C 254.398438 346.414062 254.3125 347.289062 254.3125 348.175781 C 254.3125 349.0625 254.398438 349.941406 254.570312 350.8125 C 254.742188 351.679688 255 352.523438 255.339844 353.34375 C 255.675781 354.164062 256.09375 354.941406 256.585938 355.675781 C 257.078125 356.414062 257.636719 357.097656 258.265625 357.722656 C 258.890625 358.351562 259.574219 358.910156 260.308594 359.402344 C 261.046875 359.894531 261.824219 360.3125 262.644531 360.652344 C 263.464844 360.988281 264.308594 361.246094 265.179688 361.417969 C 266.046875 361.589844 266.925781 361.675781 267.8125 361.675781 C 268.699219 361.675781 269.578125 361.585938 270.449219 361.414062 C 271.320312 361.238281 272.164062 360.980469 272.984375 360.640625 C 273.800781 360.300781 274.578125 359.882812 275.316406 359.390625 C 276.054688 358.894531 276.734375 358.335938 277.363281 357.707031 C 277.988281 357.078125 278.546875 356.394531 279.039062 355.65625 C 279.53125 354.917969 279.945312 354.140625 280.28125 353.320312 C 280.621094 352.5 280.878906 351.65625 281.050781 350.785156 C 281.222656 349.914062 281.308594 349.035156 281.308594 348.148438 C 281.308594 347.261719 281.21875 346.382812 281.046875 345.515625 C 280.871094 344.644531 280.613281 343.800781 280.273438 342.980469 C 279.933594 342.164062 279.515625 341.382812 279.023438 340.648438 C 278.527344 339.910156 277.96875 339.230469 277.339844 338.601562 C 276.710938 337.976562 276.027344 337.417969 275.289062 336.925781 C 274.550781 336.433594 273.773438 336.019531 272.953125 335.679688 C 271.398438 335.042969 269.78125 334.710938 268.101562 334.679688 Z M 485.734375 350.867188 C 483.984375 350.921875 482.304688 351.300781 480.699219 352.007812 C 479.089844 352.714844 477.675781 353.695312 476.453125 354.957031 L 391.5 439.910156 L 360.542969 408.957031 C 359.921875 408.308594 359.242188 407.726562 358.503906 407.214844 C 357.769531 406.703125 356.988281 406.269531 356.164062 405.914062 C 355.335938 405.554688 354.488281 405.285156 353.609375 405.097656 C 352.730469 404.910156 351.839844 404.8125 350.941406 404.804688 C 350.046875 404.796875 349.15625 404.875 348.273438 405.042969 C 347.390625 405.210938 346.535156 405.464844 345.703125 405.804688 C 344.871094 406.144531 344.082031 406.5625 343.332031 407.0625 C 342.585938 407.558594 341.894531 408.125 341.257812 408.757812 C 340.625 409.394531 340.058594 410.085938 339.5625 410.832031 C 339.0625 411.582031 338.644531 412.371094 338.304688 413.203125 C 337.964844 414.035156 337.710938 414.890625 337.542969 415.773438 C 337.375 416.65625 337.296875 417.546875 337.304688 418.441406 C 337.3125 419.339844 337.410156 420.230469 337.597656 421.109375 C 337.785156 421.988281 338.054688 422.835938 338.414062 423.664062 C 338.769531 424.488281 339.203125 425.269531 339.714844 426.003906 C 340.226562 426.742188 340.808594 427.421875 341.453125 428.042969 L 381.953125 468.542969 C 382.582031 469.171875 383.265625 469.730469 384 470.222656 C 384.738281 470.714844 385.515625 471.132812 386.335938 471.46875 C 387.152344 471.808594 387.996094 472.066406 388.867188 472.238281 C 389.734375 472.410156 390.613281 472.496094 391.5 472.496094 C 392.386719 472.496094 393.265625 472.410156 394.132812 472.238281 C 395.003906 472.066406 395.847656 471.808594 396.664062 471.46875 C 397.484375 471.132812 398.261719 470.714844 399 470.222656 C 399.734375 469.730469 400.417969 469.171875 401.042969 468.542969 L 495.542969 374.046875 C 496.03125 373.574219 496.476562 373.070312 496.886719 372.53125 C 497.296875 371.992188 497.660156 371.425781 497.984375 370.832031 C 498.308594 370.238281 498.585938 369.625 498.820312 368.988281 C 499.050781 368.351562 499.234375 367.703125 499.367188 367.039062 C 499.5 366.378906 499.585938 365.707031 499.617188 365.035156 C 499.652344 364.359375 499.636719 363.683594 499.566406 363.011719 C 499.5 362.339844 499.382812 361.675781 499.214844 361.019531 C 499.046875 360.363281 498.832031 359.722656 498.566406 359.101562 C 498.304688 358.480469 497.996094 357.878906 497.640625 357.300781 C 497.289062 356.726562 496.894531 356.179688 496.457031 355.664062 C 496.023438 355.144531 495.550781 354.664062 495.042969 354.21875 C 494.535156 353.769531 493.996094 353.367188 493.425781 353 C 492.855469 352.636719 492.261719 352.316406 491.644531 352.039062 C 491.027344 351.761719 490.394531 351.535156 489.742188 351.351562 C 489.089844 351.171875 488.429688 351.042969 487.757812 350.960938 C 487.085938 350.878906 486.414062 350.847656 485.734375 350.867188 Z M 256.5 391.5 C 255.613281 391.5 254.734375 391.585938 253.867188 391.757812 C 252.996094 391.933594 252.152344 392.1875 251.332031 392.527344 C 250.515625 392.867188 249.738281 393.28125 249 393.773438 C 248.261719 394.269531 247.582031 394.828125 246.953125 395.453125 C 246.328125 396.082031 245.769531 396.761719 245.273438 397.5 C 244.78125 398.238281 244.367188 399.015625 244.027344 399.832031 C 243.6875 400.652344 243.433594 401.496094 243.257812 402.367188 C 243.085938 403.234375 243 404.113281 243 405 C 243 405.886719 243.085938 406.765625 243.257812 407.632812 C 243.433594 408.503906 243.6875 409.347656 244.027344 410.167969 C 244.367188 410.984375 244.78125 411.761719 245.273438 412.5 C 245.769531 413.238281 246.328125 413.917969 246.953125 414.546875 C 247.582031 415.171875 248.261719 415.730469 249 416.226562 C 249.738281 416.71875 250.515625 417.132812 251.332031 417.472656 C 252.152344 417.8125 252.996094 418.066406 253.867188 418.242188 C 254.734375 418.414062 255.613281 418.5 256.5 418.5 C 257.386719 418.5 258.265625 418.414062 259.132812 418.242188 C 260.003906 418.066406 260.847656 417.8125 261.667969 417.472656 C 262.484375 417.132812 263.261719 416.71875 264 416.226562 C 264.738281 415.730469 265.417969 415.171875 266.046875 414.546875 C 266.671875 413.917969 267.230469 413.238281 267.726562 412.5 C 268.21875 411.761719 268.632812 410.984375 268.972656 410.167969 C 269.3125 409.347656 269.566406 408.503906 269.742188 407.632812 C 269.914062 406.765625 270 405.886719 270 405 C 270 404.113281 269.914062 403.234375 269.742188 402.367188 C 269.566406 401.496094 269.3125 400.652344 268.972656 399.832031 C 268.632812 399.015625 268.21875 398.238281 267.726562 397.5 C 267.230469 396.761719 266.671875 396.082031 266.046875 395.453125 C 265.417969 394.828125 264.738281 394.269531 264 393.773438 C 263.261719 393.28125 262.484375 392.867188 261.667969 392.527344 C 260.847656 392.1875 260.003906 391.933594 259.132812 391.757812 C 258.265625 391.585938 257.386719 391.5 256.5 391.5 Z M 267.890625 448.320312 C 266.074219 448.3125 264.324219 448.652344 262.644531 449.347656 C 261.824219 449.6875 261.046875 450.105469 260.308594 450.597656 C 259.574219 451.089844 258.890625 451.648438 258.265625 452.277344 C 257.636719 452.902344 257.078125 453.585938 256.585938 454.324219 C 256.09375 455.058594 255.675781 455.835938 255.339844 456.65625 C 255 457.476562 254.742188 458.320312 254.570312 459.1875 C 254.398438 460.058594 254.3125 460.9375 254.3125 461.824219 C 254.3125 462.710938 254.398438 463.585938 254.570312 464.457031 C 254.746094 465.328125 255 466.171875 255.339844 466.988281 C 255.679688 467.808594 256.09375 468.589844 256.585938 469.328125 C 257.074219 470.066406 257.636719 470.75 258.261719 471.375 C 258.886719 472.003906 259.570312 472.566406 260.304688 473.058594 C 261.042969 473.554688 261.820312 473.96875 262.640625 474.308594 C 263.460938 474.652344 264.304688 474.90625 265.171875 475.082031 C 266.042969 475.253906 266.921875 475.34375 267.808594 475.34375 C 268.695312 475.34375 269.574219 475.257812 270.445312 475.085938 C 271.316406 474.914062 272.160156 474.660156 272.980469 474.320312 C 273.796875 473.980469 274.578125 473.5625 275.3125 473.070312 C 276.050781 472.578125 276.730469 472.019531 277.359375 471.390625 C 277.984375 470.765625 278.546875 470.082031 279.039062 469.347656 C 279.53125 468.609375 279.945312 467.832031 280.285156 467.011719 C 280.625 466.191406 280.878906 465.347656 281.050781 464.480469 C 281.226562 463.609375 281.3125 462.730469 281.3125 461.847656 C 281.3125 460.960938 281.226562 460.082031 281.050781 459.210938 C 280.878906 458.34375 280.621094 457.5 280.28125 456.679688 C 279.777344 455.449219 279.101562 454.320312 278.261719 453.289062 C 277.421875 452.257812 276.453125 451.371094 275.347656 450.628906 C 274.246094 449.886719 273.0625 449.316406 271.789062 448.925781 C 270.519531 448.53125 269.21875 448.332031 267.890625 448.320312 Z M 300.191406 496.492188 C 298.367188 496.46875 296.613281 496.800781 294.925781 497.488281 C 293.238281 498.171875 291.75 499.160156 290.460938 500.449219 C 289.835938 501.074219 289.273438 501.757812 288.78125 502.496094 C 288.289062 503.230469 287.875 504.007812 287.535156 504.828125 C 287.195312 505.648438 286.941406 506.492188 286.765625 507.359375 C 286.59375 508.230469 286.507812 509.109375 286.507812 509.992188 C 286.507812 510.878906 286.59375 511.757812 286.765625 512.628906 C 286.941406 513.496094 287.195312 514.339844 287.535156 515.160156 C 287.875 515.980469 288.289062 516.757812 288.78125 517.492188 C 289.273438 518.230469 289.835938 518.914062 290.460938 519.539062 C 291.085938 520.164062 291.769531 520.726562 292.507812 521.21875 C 293.242188 521.710938 294.019531 522.125 294.839844 522.464844 C 295.660156 522.804688 296.503906 523.058594 297.371094 523.234375 C 298.242188 523.40625 299.121094 523.492188 300.003906 523.492188 C 300.890625 523.492188 301.769531 523.40625 302.640625 523.234375 C 303.507812 523.058594 304.351562 522.804688 305.171875 522.464844 C 305.992188 522.125 306.769531 521.710938 307.503906 521.21875 C 308.242188 520.726562 308.925781 520.164062 309.550781 519.539062 C 310.175781 518.914062 310.738281 518.230469 311.230469 517.492188 C 311.722656 516.757812 312.136719 515.980469 312.476562 515.160156 C 312.816406 514.339844 313.070312 513.496094 313.246094 512.628906 C 313.417969 511.757812 313.503906 510.878906 313.503906 509.992188 C 313.503906 509.109375 313.417969 508.230469 313.246094 507.359375 C 313.070312 506.492188 312.816406 505.648438 312.476562 504.828125 C 312.136719 504.007812 311.722656 503.230469 311.230469 502.496094 C 310.738281 501.757812 310.175781 501.074219 309.550781 500.449219 C 308.308594 499.207031 306.875 498.242188 305.257812 497.558594 C 303.636719 496.871094 301.949219 496.519531 300.191406 496.492188 Z M 348.46875 528.6875 C 347.792969 528.675781 347.121094 528.710938 346.449219 528.796875 C 345.777344 528.882812 345.117188 529.019531 344.46875 529.207031 C 343.820312 529.390625 343.1875 529.625 342.570312 529.90625 C 341.957031 530.1875 341.367188 530.511719 340.800781 530.882812 C 340.234375 531.25 339.699219 531.660156 339.195312 532.109375 C 338.6875 532.5625 338.222656 533.046875 337.789062 533.566406 C 337.359375 534.085938 336.96875 534.636719 336.617188 535.214844 C 336.269531 535.792969 335.964844 536.394531 335.707031 537.019531 C 335.367188 537.839844 335.113281 538.683594 334.9375 539.554688 C 334.765625 540.421875 334.679688 541.300781 334.679688 542.1875 C 334.679688 543.074219 334.765625 543.949219 334.9375 544.820312 C 335.109375 545.691406 335.367188 546.535156 335.707031 547.351562 C 336.042969 548.171875 336.460938 548.949219 336.953125 549.6875 C 337.445312 550.425781 338.003906 551.105469 338.632812 551.734375 C 339.257812 552.359375 339.941406 552.917969 340.675781 553.414062 C 341.414062 553.90625 342.191406 554.320312 343.011719 554.660156 C 343.828125 555 344.671875 555.253906 345.542969 555.429688 C 346.414062 555.601562 347.289062 555.6875 348.175781 555.6875 C 349.0625 555.6875 349.941406 555.601562 350.8125 555.429688 C 351.679688 555.257812 352.523438 555 353.34375 554.660156 C 354.164062 554.324219 354.941406 553.90625 355.675781 553.414062 C 356.414062 552.921875 357.097656 552.363281 357.722656 551.734375 C 358.351562 551.109375 358.910156 550.425781 359.402344 549.691406 C 359.894531 548.953125 360.3125 548.175781 360.648438 547.355469 C 360.988281 546.539062 361.246094 545.695312 361.417969 544.824219 C 361.59375 543.953125 361.679688 543.078125 361.679688 542.191406 C 361.679688 541.304688 361.59375 540.425781 361.417969 539.554688 C 361.246094 538.6875 360.992188 537.84375 360.652344 537.023438 C 360.3125 536.203125 359.898438 535.425781 359.40625 534.691406 C 358.914062 533.953125 358.351562 533.269531 357.726562 532.644531 C 357.097656 532.015625 356.417969 531.457031 355.679688 530.964844 C 354.945312 530.472656 354.164062 530.054688 353.347656 529.714844 C 351.785156 529.070312 350.160156 528.726562 348.46875 528.6875 Z M 348.46875 528.6875" fill="#63b8b1"/><script xmlns=""/></svg>