<svg xmlns:xlink="http://www.w3.org/1999/xlink" xmlns="http://www.w3.org/2000/svg" version="1.0" preserveAspectRatio="xMidYMid meet" height="1080" viewBox="0 0 810 809.999993" zoomAndPan="magnify" width="1080"><defs><clipPath id="544f231a08"><path clip-rule="nonzero" d="M 243 350 L 399 350 L 399 549 L 243 549 Z M 243 350"/></clipPath><clipPath id="d8c1ee6d49"><path clip-rule="nonzero" d="M 296 243 L 351 243 L 351 309 L 296 309 Z M 296 243"/></clipPath><clipPath id="cdeb0b2432"><path clip-rule="nonzero" d="M 464 243 L 519 243 L 519 309 L 464 309 Z M 464 243"/></clipPath><clipPath id="ae7aab7272"><path clip-rule="nonzero" d="M 243 494 L 285 494 L 285 525 L 243 525 Z M 243 494"/></clipPath></defs><path fill-rule="nonzero" fill-opacity="1" d="M 566.988281 362.972656 C 566.988281 363.75 566.929688 364.53125 566.75 365.3125 L 548.628906 456.515625 C 547.785156 460.777344 545.390625 464.433594 542.089844 467.015625 C 542.089844 467.015625 498.226562 501.15625 483.945312 512.976562 C 480.285156 516.035156 464.980469 526.175781 464.980469 540.695312 L 464.980469 548.976562 L 410.976562 548.976562 L 410.976562 506.792969 C 410.976562 479.429688 422.796875 464.734375 435.460938 455.671875 C 448.476562 446.25 488.140625 419.128906 488.140625 419.128906 C 490.117188 417.75 492.464844 416.96875 494.980469 416.96875 C 501.582031 416.96875 506.980469 422.367188 506.980469 428.96875 C 506.980469 433.53125 504.878906 436.226562 501.882812 438.746094 L 467.261719 466.285156 C 465.761719 467.429688 464.980469 469.226562 464.980469 470.96875 C 464.980469 474.269531 467.621094 476.96875 470.984375 476.96875 C 472.300781 476.96875 473.625 476.550781 474.703125 475.648438 C 474.703125 475.648438 501.589844 454.523438 510.40625 447.265625 C 512.507812 445.585938 514.667969 442.886719 515.867188 440.609375 C 518.449219 435.808594 520.910156 426.867188 543.648438 359.121094 C 545.269531 354.378906 549.707031 350.957031 554.988281 350.957031 C 561.589844 350.957031 566.988281 356.355469 566.988281 362.957031 Z M 566.988281 362.972656" fill="#63b8b1"/><g clip-path="url(#544f231a08)"><path fill-rule="nonzero" fill-opacity="1" d="M 398.976562 506.800781 L 398.976562 548.984375 L 344.972656 548.984375 L 344.972656 540.703125 C 344.972656 526.183594 329.671875 516.042969 326.007812 512.984375 C 311.730469 501.164062 267.867188 467.023438 267.867188 467.023438 C 264.566406 464.441406 262.171875 460.78125 261.328125 456.519531 L 243.207031 365.316406 C 243.023438 364.539062 242.96875 363.757812 242.96875 362.976562 C 242.96875 356.375 248.367188 350.976562 254.96875 350.976562 C 260.25 350.976562 264.691406 354.398438 266.308594 359.140625 C 289.046875 426.886719 291.507812 435.820312 294.089844 440.625 C 295.289062 442.910156 297.453125 445.605469 299.550781 447.285156 C 308.367188 454.542969 335.25 475.664062 335.25 475.664062 C 336.332031 476.566406 337.652344 476.988281 338.96875 476.988281 C 342.335938 476.988281 344.972656 474.285156 344.972656 470.984375 C 344.972656 469.246094 344.195312 467.449219 342.695312 466.304688 L 308.074219 438.765625 C 305.074219 436.246094 302.976562 433.542969 302.976562 428.988281 C 302.976562 422.386719 308.375 416.988281 314.976562 416.988281 C 317.496094 416.988281 319.835938 417.769531 321.816406 419.148438 C 321.816406 419.148438 361.480469 446.265625 374.496094 455.691406 C 387.160156 464.75 398.976562 479.453125 398.976562 506.8125 Z M 398.976562 506.800781" fill="#63b8b1"/></g><path fill-rule="nonzero" fill-opacity="1" d="M 446.980469 398.976562 L 446.980469 432.882812 C 439.535156 438.042969 432.636719 442.902344 428.4375 445.960938 C 417.699219 453.644531 409.835938 463.304688 404.976562 474.824219 C 400.113281 463.304688 392.25 453.644531 381.453125 445.898438 C 377.253906 442.839844 370.351562 438.035156 362.972656 432.875 L 362.972656 398.972656 C 362.972656 375.75 381.753906 356.96875 404.976562 356.96875 C 428.195312 356.96875 446.980469 375.75 446.980469 398.972656 Z M 446.980469 398.976562" fill="#63b8b1"/><path fill-rule="nonzero" fill-opacity="1" d="M 372.394531 355.949219 C 359.375 365.792969 350.972656 381.457031 350.972656 398.972656 L 350.972656 424.59375 C 339.507812 416.675781 329.429688 409.773438 328.585938 409.230469 C 324.625 406.472656 319.886719 404.96875 314.964844 404.96875 C 307.824219 404.96875 301.339844 408.152344 296.960938 413.132812 C 296.242188 411.089844 285.441406 378.445312 277.695312 355.289062 C 277.398438 354.445312 277.097656 353.667969 276.679688 352.886719 C 284.238281 334.164062 302.601562 320.96875 323.960938 320.96875 C 346.523438 320.96875 365.667969 335.605469 372.382812 355.949219 Z M 372.394531 355.949219" fill="#63b8b1"/><path fill-rule="nonzero" fill-opacity="1" d="M 536.683594 347.496094 C 534.761719 349.714844 533.320312 352.355469 532.304688 355.234375 C 524.503906 378.453125 513.707031 411.097656 512.984375 413.136719 C 508.601562 408.15625 502.125 404.976562 494.980469 404.976562 C 490.0625 404.976562 485.320312 406.472656 481.292969 409.292969 C 480.515625 409.835938 470.4375 416.675781 458.972656 424.59375 L 458.972656 398.972656 C 458.972656 383.734375 452.613281 369.929688 442.410156 360.089844 C 447.746094 337.648438 467.914062 320.96875 491.972656 320.96875 C 511.234375 320.96875 528.035156 331.707031 536.679688 347.488281 Z M 536.683594 347.496094" fill="#63b8b1"/><path fill-rule="nonzero" fill-opacity="1" d="M 428.976562 308.972656 C 428.976562 295.71875 418.230469 284.972656 404.976562 284.972656 C 391.71875 284.972656 380.972656 295.71875 380.972656 308.972656 L 380.972656 320.972656 C 380.972656 334.226562 391.71875 344.972656 404.976562 344.972656 C 418.230469 344.972656 428.976562 334.226562 428.976562 320.972656 Z M 428.976562 308.972656" fill="#63b8b1"/><g clip-path="url(#d8c1ee6d49)"><path fill-rule="nonzero" fill-opacity="1" d="M 350.972656 269.972656 C 350.972656 255.054688 338.882812 242.96875 323.96875 242.96875 C 309.054688 242.96875 296.964844 255.054688 296.964844 269.972656 L 296.964844 281.972656 C 296.964844 296.886719 309.054688 308.972656 323.96875 308.972656 C 338.882812 308.972656 350.972656 296.886719 350.972656 281.972656 Z M 350.972656 269.972656" fill="#63b8b1"/></g><g clip-path="url(#cdeb0b2432)"><path fill-rule="nonzero" fill-opacity="1" d="M 518.980469 269.972656 C 518.980469 255.054688 506.894531 242.96875 491.976562 242.96875 C 477.0625 242.96875 464.976562 255.054688 464.976562 269.972656 L 464.976562 281.972656 C 464.976562 296.886719 477.0625 308.972656 491.976562 308.972656 C 506.894531 308.972656 518.980469 296.886719 518.980469 281.972656 Z M 518.980469 269.972656" fill="#63b8b1"/></g><path fill-rule="nonzero" fill-opacity="1" d="M 291.949219 553.984375 C 294.949219 547.984375 300.949219 535.980469 303.949219 529.980469 C 305.429688 527.03125 308.449219 524.984375 311.96875 524.984375 C 316.941406 524.984375 320.96875 529.015625 320.96875 533.980469 C 320.96875 535.429688 320.59375 536.773438 319.988281 537.988281 C 316.984375 543.984375 310.988281 555.992188 307.988281 561.988281 C 306.507812 564.941406 303.488281 566.988281 299.96875 566.988281 C 294.996094 566.988281 290.96875 562.957031 290.96875 557.988281 C 290.96875 556.542969 291.34375 555.199219 291.949219 553.984375 Z M 291.949219 553.984375" fill="#63b8b1"/><g clip-path="url(#ae7aab7272)"><path fill-rule="nonzero" fill-opacity="1" d="M 284.964844 503.984375 C 284.964844 499.011719 280.933594 494.984375 275.96875 494.984375 C 274.519531 494.984375 273.179688 495.359375 271.96875 495.964844 C 265.972656 498.96875 253.964844 504.964844 247.96875 507.964844 C 245.015625 509.445312 242.96875 512.464844 242.96875 515.984375 C 242.96875 520.957031 247 524.984375 251.96875 524.984375 C 253.414062 524.984375 254.757812 524.609375 255.96875 524.003906 C 261.964844 521.003906 273.972656 515.003906 279.96875 512.003906 C 282.917969 510.523438 284.964844 507.503906 284.964844 503.984375 Z M 284.964844 503.984375" fill="#63b8b1"/></g><path fill-rule="nonzero" fill-opacity="1" d="M 518.007812 553.984375 C 515.003906 547.984375 509.007812 535.980469 506.007812 529.980469 C 504.527344 527.03125 501.507812 524.984375 497.988281 524.984375 C 493.015625 524.984375 488.988281 529.015625 488.988281 533.980469 C 488.988281 535.429688 489.363281 536.773438 489.96875 537.988281 C 492.96875 543.984375 498.96875 555.992188 501.96875 561.988281 C 503.449219 564.941406 506.46875 566.988281 509.988281 566.988281 C 514.960938 566.988281 518.988281 562.957031 518.988281 557.988281 C 518.988281 556.542969 518.613281 555.199219 518.007812 553.984375 Z M 518.007812 553.984375" fill="#63b8b1"/><path fill-rule="nonzero" fill-opacity="1" d="M 524.984375 503.984375 C 524.984375 499.011719 529.015625 494.984375 533.980469 494.984375 C 535.429688 494.984375 536.773438 495.359375 537.980469 495.964844 C 543.980469 498.96875 555.984375 504.964844 561.984375 507.964844 C 564.933594 509.445312 566.980469 512.464844 566.980469 515.984375 C 566.980469 520.957031 562.949219 524.984375 557.984375 524.984375 C 556.535156 524.984375 555.191406 524.609375 553.984375 524.003906 C 547.984375 521.003906 535.980469 515.003906 529.980469 512.003906 C 527.03125 510.523438 524.984375 507.503906 524.984375 503.984375 Z M 524.984375 503.984375" fill="#63b8b1"/><script xmlns=""/></svg>