<svg xmlns:xlink="http://www.w3.org/1999/xlink" xmlns="http://www.w3.org/2000/svg" version="1.0" preserveAspectRatio="xMidYMid meet" height="1080" viewBox="0 0 810 809.999993" zoomAndPan="magnify" width="1080"><defs><clipPath id="296b9f6c00"><path clip-rule="nonzero" d="M 245 283.5 L 566 283.5 L 566 526.5 L 245 526.5 Z M 245 283.5"/></clipPath></defs><g clip-path="url(#296b9f6c00)"><path fill-rule="nonzero" fill-opacity="1" d="M 555.925781 392.234375 C 561.480469 390.097656 565.488281 384.4375 565.488281 377.710938 C 565.488281 369.164062 559.078125 362.222656 551.171875 362.222656 L 536.007812 362.222656 C 544.710938 353.996094 550.210938 341.765625 550.210938 328.09375 C 550.210938 303.421875 532.160156 283.285156 509.945312 283.285156 L 376.214844 283.285156 C 368.308594 283.285156 361.902344 290.230469 361.902344 298.773438 C 361.902344 305.503906 365.90625 311.164062 371.460938 313.300781 C 373.222656 315.222656 377.496094 320.832031 377.121094 329.054688 C 376.800781 336.320312 373.007812 341.125 371.300781 342.941406 C 365.800781 345.132812 361.902344 350.738281 361.902344 357.414062 C 361.902344 359.335938 362.273438 361.101562 362.863281 362.808594 C 343.6875 366.226562 328.949219 384.707031 328.949219 406.976562 C 328.949219 409.753906 329.214844 412.421875 329.644531 415.039062 C 322.699219 416.320312 315.917969 418.566406 309.617188 421.984375 L 276.398438 439.660156 C 273.992188 437.953125 271.269531 436.722656 268.277344 436.191406 C 263.046875 435.28125 257.757812 436.457031 253.433594 439.5 C 249.105469 442.542969 246.222656 447.085938 245.3125 452.316406 C 244.40625 457.550781 245.582031 462.839844 248.625 467.113281 L 284.085938 517.632812 C 287.132812 521.960938 291.671875 524.84375 296.90625 525.753906 C 298.078125 525.964844 299.253906 526.074219 300.375 526.074219 C 304.433594 526.074219 308.335938 524.84375 311.699219 522.496094 C 316.023438 519.449219 318.910156 514.910156 319.816406 509.675781 C 320.136719 507.753906 320.136719 505.832031 319.921875 503.960938 C 330.285156 499.742188 341.820312 498.515625 353.140625 500.652344 L 421.503906 508.714844 C 425.082031 509.410156 428.710938 509.730469 432.398438 509.730469 C 440.996094 509.730469 449.59375 507.808594 457.390625 504.121094 C 461.398438 502.839844 499.15625 490.71875 530.453125 483.027344 C 536.859375 481.425781 542.203125 479.234375 546.3125 476.40625 C 553.363281 471.597656 556.246094 463.214844 553.683594 454.988281 C 553.308594 453.8125 552.828125 452.691406 552.296875 451.625 C 559.613281 450.929688 565.378906 444.359375 565.378906 436.296875 C 565.378906 429.621094 561.429688 423.960938 555.925781 421.769531 C 554.21875 419.953125 550.480469 415.148438 550.160156 407.9375 C 549.785156 399.710938 554.058594 394.160156 555.820312 392.183594 Z M 539.585938 408.472656 C 539.796875 413.386719 541.078125 417.496094 542.683594 420.863281 L 378.882812 420.863281 C 377.441406 420.542969 376 420.167969 374.558594 419.847656 C 370.179688 417.765625 367.242188 412.691406 367.242188 407.03125 C 367.242188 399.390625 372.476562 393.195312 378.882812 393.195312 L 542.734375 393.195312 M 376.214844 294.019531 L 509.945312 294.019531 C 526.234375 294.019531 539.53125 309.347656 539.53125 328.148438 C 539.53125 346.945312 526.285156 362.273438 509.945312 362.273438 L 376.214844 362.273438 C 374.238281 362.273438 372.582031 360.085938 372.582031 357.46875 C 372.582031 354.851562 374.238281 352.660156 376.214844 352.660156 L 500.332031 352.660156 C 512.667969 352.660156 522.65625 341.660156 522.65625 328.09375 C 522.65625 314.527344 512.613281 303.582031 500.332031 303.582031 L 376.214844 303.582031 C 374.238281 303.582031 372.582031 301.390625 372.582031 298.773438 C 372.582031 296.15625 374.238281 293.96875 376.214844 293.96875 Z M 540.332031 467.59375 C 537.234375 469.675781 533.070312 471.382812 527.941406 472.667969 C 494.667969 480.890625 454.1875 493.976562 453.8125 494.082031 C 453.601562 494.136719 453.332031 494.242188 453.121094 494.347656 C 444.039062 498.78125 433.574219 500.171875 423.210938 498.140625 L 354.851562 490.023438 C 341.875 487.566406 328.308594 489.007812 316.078125 493.976562 L 283.714844 447.832031 L 314.742188 431.328125 C 327.238281 424.652344 341.605469 422.835938 355.332031 426.042969 C 360.992188 427.378906 366.332031 428.660156 371.355469 429.886719 C 373.222656 430.582031 375.09375 431.0625 376.90625 431.222656 C 399.765625 436.832031 414.558594 440.835938 418.511719 442.597656 C 420.328125 443.347656 421.984375 445.429688 422.890625 447.992188 C 422.945312 448.152344 422.996094 448.367188 423.050781 448.527344 C 423.480469 450.023438 423.640625 451.675781 423.371094 453.332031 C 422.410156 458.832031 416.964844 462.144531 408.042969 462.734375 C 381.875 464.335938 359.285156 461.503906 359.015625 461.503906 C 356.132812 461.183594 353.410156 463.214844 353.035156 466.152344 C 352.660156 469.089844 354.746094 471.757812 357.683594 472.132812 C 358.429688 472.238281 372.316406 473.949219 391.222656 473.949219 C 396.722656 473.949219 402.597656 473.789062 408.738281 473.414062 C 422.675781 472.507812 432.078125 465.722656 433.894531 455.148438 C 434.105469 453.972656 434.214844 452.851562 434.214844 451.675781 L 535.3125 451.675781 C 540.011719 451.785156 542.683594 454.988281 543.644531 458.03125 C 544.070312 459.421875 545.140625 464.28125 540.4375 467.484375 Z M 540.332031 467.59375" fill="#63b8b1"/></g><script xmlns=""/></svg>