<svg xmlns:xlink="http://www.w3.org/1999/xlink" xmlns="http://www.w3.org/2000/svg" version="1.0" preserveAspectRatio="xMidYMid meet" height="1080" viewBox="0 0 810 809.999993" zoomAndPan="magnify" width="1080"><defs><filter id="3001e92db7" height="100%" width="100%" y="0%" x="0%"><feColorMatrix color-interpolation-filters="sRGB" values="0 0 0 0 1 0 0 0 0 1 0 0 0 0 1 0 0 0 1 0"/></filter><mask id="1a0d485a04"><g filter="url(#3001e92db7)"><rect fill-opacity="0.12" height="971.999992" y="-80.999999" fill="#000000" width="972" x="-81"/></g></mask><clipPath id="0326fa1491"><path clip-rule="nonzero" d="M 29 306 L 227 306 L 227 504 L 29 504 Z M 29 306"/></clipPath><clipPath id="d4482471b6"><path clip-rule="nonzero" d="M 70.496094 306.175781 L 226.296875 461.976562 L 185.183594 503.089844 L 29.382812 347.292969 Z M 70.496094 306.175781"/></clipPath><clipPath id="ca0868e3cc"><path clip-rule="nonzero" d="M 50 227 L 215 227 L 215 392 L 50 392 Z M 50 227"/></clipPath><clipPath id="93a3703515"><path clip-rule="nonzero" d="M 92.027344 227.613281 L 214.859375 350.445312 L 173.742188 391.558594 L 50.914062 268.730469 Z M 92.027344 227.613281"/></clipPath><clipPath id="6d049e72fa"><path clip-rule="nonzero" d="M 173 373 L 303 373 L 303 504 L 173 504 Z M 173 373"/></clipPath><clipPath id="a9104890f4"><path clip-rule="nonzero" d="M 302.847656 415.078125 L 214.84375 503.085938 L 173.726562 461.96875 L 261.734375 373.960938 Z M 302.847656 415.078125"/></clipPath><clipPath id="32b1e6ef4a"><path clip-rule="nonzero" d="M 160 277 L 303 277 L 303 420 L 160 420 Z M 160 277"/></clipPath><clipPath id="2f1f550775"><path clip-rule="nonzero" d="M 302.351562 318.539062 L 201.539062 419.351562 L 160.425781 378.234375 L 261.238281 277.421875 Z M 302.351562 318.539062"/></clipPath><clipPath id="a6712476b2"><path clip-rule="nonzero" d="M 269 326 L 352 326 L 352 408 L 269 408 Z M 269 326"/></clipPath><clipPath id="afbf6f32e2"><path clip-rule="nonzero" d="M 351.164062 367.363281 L 310.886719 407.640625 L 269.773438 366.527344 L 310.050781 326.246094 Z M 351.164062 367.363281"/></clipPath><clipPath id="8ba4982a05"><path clip-rule="nonzero" d="M 268 228 L 351 228 L 351 312 L 268 312 Z M 268 228"/></clipPath><clipPath id="3b24339f6d"><path clip-rule="nonzero" d="M 350.851562 270.03125 L 309.652344 311.230469 L 268.539062 270.117188 L 309.738281 228.917969 Z M 350.851562 270.03125"/></clipPath><clipPath id="99b90fe46d"><path clip-rule="nonzero" d="M 323 277 L 393 277 L 393 360 L 323 360 Z M 323 277"/></clipPath><clipPath id="3e77a73da7"><path clip-rule="nonzero" d="M 358.265625 277.441406 L 399.628906 318.808594 L 358.265625 360.175781 L 316.898438 318.808594 Z M 358.265625 277.441406"/></clipPath><clipPath id="5eff08880e"><path clip-rule="nonzero" d="M 358.265625 277.441406 L 399.628906 318.808594 L 358.265625 360.175781 L 316.898438 318.808594 Z M 358.265625 277.441406"/></clipPath><clipPath id="35e85a4a29"><path clip-rule="nonzero" d="M 7 277 L 76 277 L 76 360 L 7 360 Z M 7 277"/></clipPath><clipPath id="d6979d8d5c"><path clip-rule="nonzero" d="M 41.476562 277.488281 L 82.3125 318.320312 L 41.476562 359.15625 L 0.640625 318.320312 Z M 41.476562 277.488281"/></clipPath><clipPath id="eb5353dd9c"><path clip-rule="nonzero" d="M 41.476562 277.488281 L 82.3125 318.320312 L 41.476562 359.15625 L 0.640625 318.320312 Z M 41.476562 277.488281"/></clipPath><clipPath id="7e242d2ca5"><path clip-rule="nonzero" d="M 317 292 L 385 292 L 385 360 L 317 360 Z M 317 292"/></clipPath><clipPath id="3144061d0c"><path clip-rule="nonzero" d="M 384.242188 333.683594 L 358.175781 359.75 L 317.0625 318.636719 L 343.128906 292.570312 Z M 384.242188 333.683594"/></clipPath><clipPath id="6e2f8fdda3"><path clip-rule="nonzero" d="M 165 32 L 235 32 L 235 115 L 165 115 Z M 165 32"/></clipPath><clipPath id="b435013610"><path clip-rule="nonzero" d="M 200 32.691406 L 240.835938 73.527344 L 200 114.359375 L 159.164062 73.527344 Z M 200 32.691406"/></clipPath><clipPath id="7df6049e14"><path clip-rule="nonzero" d="M 200 32.691406 L 240.835938 73.527344 L 200 114.359375 L 159.164062 73.527344 Z M 200 32.691406"/></clipPath><clipPath id="b8dd92fc94"><path clip-rule="nonzero" d="M 184.011719 1.40625 L 217 1.40625 L 217 27.65625 L 184.011719 27.65625 Z M 184.011719 1.40625"/></clipPath><clipPath id="09ca762890"><path clip-rule="nonzero" d="M 184.011719 1.40625 L 217.011719 1.40625 L 217.011719 27.65625 L 184.011719 27.65625 Z M 184.011719 1.40625"/></clipPath><clipPath id="77de2a04a9"><path clip-rule="nonzero" d="M 192.878906 0.078125 L 207.878906 0.078125 L 207.878906 14.324219 L 192.878906 14.324219 Z M 192.878906 0.078125"/></clipPath><clipPath id="c92df42707"><path clip-rule="nonzero" d="M 160 445 L 239 445 L 239 512 L 160 512 Z M 160 445"/></clipPath><clipPath id="4e89133f4f"><path clip-rule="nonzero" d="M 160.433594 478.332031 L 199.679688 439.089844 L 238.925781 478.332031 L 199.679688 517.578125 Z M 160.433594 478.332031"/></clipPath><clipPath id="eb5d713200"><path clip-rule="nonzero" d="M 160.433594 478.332031 L 199.679688 439.089844 L 238.925781 478.332031 L 199.679688 517.578125 Z M 160.433594 478.332031"/></clipPath><clipPath id="adf6e7b92d"><path clip-rule="nonzero" d="M 158 177 L 303 177 L 303 322 L 158 322 Z M 158 177"/></clipPath><clipPath id="b5cc0e59d0"><path clip-rule="nonzero" d="M 302.28125 221.453125 L 201.90625 321.828125 L 158.4375 278.359375 L 258.8125 177.984375 Z M 302.28125 221.453125"/></clipPath><clipPath id="4ca8a73ccd"><path clip-rule="nonzero" d="M 99 178 L 232 178 L 232 311 L 99 311 Z M 99 178"/></clipPath><clipPath id="cc67ffda91"><path clip-rule="nonzero" d="M 141.394531 178.113281 L 231.703125 268.425781 L 190.101562 310.03125 L 99.789062 219.71875 Z M 141.394531 178.113281"/></clipPath><clipPath id="477137e7d8"><path clip-rule="nonzero" d="M 156 119 L 291 119 L 291 253 L 156 253 Z M 156 119"/></clipPath><clipPath id="cda6251d40"><path clip-rule="nonzero" d="M 246.863281 252.761719 L 156.804688 162.703125 L 200.167969 119.339844 L 290.226562 209.398438 Z M 246.863281 252.761719"/></clipPath><clipPath id="26e1b23439"><path clip-rule="nonzero" d="M 132 144 L 219 144 L 219 231 L 132 231 Z M 132 144"/></clipPath><clipPath id="3a19c421e4"><path clip-rule="nonzero" d="M 218.171875 188.015625 L 175.546875 230.640625 L 132.199219 187.296875 L 174.828125 144.667969 Z M 218.171875 188.015625"/></clipPath><clipPath id="9f8762841d"><rect height="518" y="0" width="400" x="0"/></clipPath></defs><g mask="url(#1a0d485a04)"><g transform="matrix(1, 0, 0, 1, 205, 136)"><g clip-path="url(#9f8762841d)"><g clip-path="url(#0326fa1491)"><g clip-path="url(#d4482471b6)"><path fill-rule="nonzero" fill-opacity="1" d="M 70.496094 306.175781 L 226.285156 461.964844 L 185.167969 503.078125 L 29.382812 347.292969 Z M 70.496094 306.175781" fill="#013137"/></g></g><g clip-path="url(#ca0868e3cc)"><g clip-path="url(#93a3703515)"><path fill-rule="nonzero" fill-opacity="1" d="M 92.027344 227.613281 L 214.890625 350.476562 L 173.777344 391.59375 L 50.914062 268.730469 Z M 92.027344 227.613281" fill="#013137"/></g></g><g clip-path="url(#6d049e72fa)"><g clip-path="url(#a9104890f4)"><path fill-rule="nonzero" fill-opacity="1" d="M 302.847656 415.078125 L 214.839844 503.089844 L 173.722656 461.972656 L 261.734375 373.960938 Z M 302.847656 415.078125" fill="#013137"/></g></g><g clip-path="url(#32b1e6ef4a)"><g clip-path="url(#2f1f550775)"><path fill-rule="nonzero" fill-opacity="1" d="M 302.351562 318.539062 L 201.492188 419.398438 L 160.378906 378.28125 L 261.238281 277.421875 Z M 302.351562 318.539062" fill="#013137"/></g></g><g clip-path="url(#a6712476b2)"><g clip-path="url(#afbf6f32e2)"><path fill-rule="nonzero" fill-opacity="1" d="M 351.164062 367.363281 L 310.886719 407.640625 L 269.820312 366.574219 L 310.101562 326.296875 Z M 351.164062 367.363281" fill="#013137"/></g></g><g clip-path="url(#8ba4982a05)"><g clip-path="url(#3b24339f6d)"><path fill-rule="nonzero" fill-opacity="1" d="M 350.851562 270.03125 L 309.578125 311.308594 L 268.464844 270.191406 L 309.738281 228.917969 Z M 350.851562 270.03125" fill="#013137"/></g></g><g clip-path="url(#99b90fe46d)"><g clip-path="url(#3e77a73da7)"><g clip-path="url(#5eff08880e)"><path fill-rule="nonzero" fill-opacity="1" d="M 358.265625 359.828125 L 328.335938 329.902344 C 322.117188 323.679688 322.117188 313.589844 328.335938 307.371094 L 358.265625 277.441406 L 388.191406 307.371094 C 394.414062 313.59375 394.414062 323.679688 388.191406 329.902344 Z M 358.265625 359.828125" fill="#013137"/></g></g></g><g clip-path="url(#35e85a4a29)"><g clip-path="url(#d6979d8d5c)"><g clip-path="url(#eb5353dd9c)"><path fill-rule="nonzero" fill-opacity="1" d="M 41.476562 359.375 L 11.726562 329.628906 C 5.542969 323.445312 5.542969 313.417969 11.726562 307.234375 L 41.476562 277.488281 L 71.222656 307.234375 C 77.40625 313.417969 77.40625 323.445312 71.222656 329.628906 Z M 41.476562 359.375" fill="#013137"/></g></g></g><g clip-path="url(#7e242d2ca5)"><g clip-path="url(#3144061d0c)"><path fill-rule="nonzero" fill-opacity="1" d="M 384.242188 333.683594 L 358.175781 359.75 L 317.042969 318.613281 L 343.109375 292.550781 Z M 384.242188 333.683594" fill="#013137"/></g></g><g clip-path="url(#6e2f8fdda3)"><g clip-path="url(#b435013610)"><g clip-path="url(#7df6049e14)"><path fill-rule="nonzero" fill-opacity="1" d="M 200 114.246094 L 170.375 84.621094 C 164.214844 78.460938 164.214844 68.476562 170.375 62.316406 L 200 32.691406 L 229.628906 62.316406 C 235.789062 68.476562 235.785156 78.460938 229.628906 84.621094 Z M 200 114.246094" fill="#013137"/></g></g></g><g clip-path="url(#b8dd92fc94)"><path fill-rule="nonzero" fill-opacity="1" d="M 216.789062 11.007812 C 216.789062 7.6875 215.785156 4.4375 213.886719 1.707031 C 216.15625 9.125 211.976562 16.976562 204.558594 19.246094 C 197.140625 21.515625 189.289062 17.347656 187.019531 9.929688 C 186.199219 7.253906 186.199219 4.390625 187.019531 1.707031 C 185.121094 4.4375 184.105469 7.6875 184.113281 11.007812 C 184.113281 20.03125 191.425781 27.34375 200.453125 27.34375 C 209.476562 27.34375 216.789062 20.03125 216.789062 11.007812 Z M 216.789062 11.007812" fill="#013137"/></g><g clip-path="url(#09ca762890)"><path fill-rule="nonzero" fill-opacity="1" d="M 183.894531 10.980469 C 183.894531 7.605469 184.910156 4.355469 186.84375 1.574219 C 186.90625 1.484375 187.019531 1.449219 187.117188 1.503906 C 187.214844 1.546875 187.265625 1.664062 187.230469 1.769531 C 186.417969 4.417969 186.417969 7.207031 187.230469 9.859375 C 188.308594 13.390625 190.703125 16.289062 193.960938 18.019531 C 197.21875 19.75 200.964844 20.109375 204.496094 19.035156 C 208.03125 17.957031 210.925781 15.5625 212.65625 12.304688 C 214.398438 9.046875 214.75 5.300781 213.671875 1.769531 C 213.636719 1.664062 213.691406 1.558594 213.789062 1.503906 C 213.886719 1.460938 214 1.484375 214.0625 1.574219 C 215.996094 4.355469 217.011719 7.605469 217.011719 10.980469 C 217.011719 10.988281 217.011719 10.996094 217.011719 10.996094 C 217.011719 20.128906 209.585938 27.554688 200.453125 27.554688 C 191.320312 27.554688 183.894531 20.136719 183.894531 11.007812 C 183.894531 10.996094 183.894531 10.988281 183.894531 10.980469 Z M 186.464844 2.996094 C 185.070312 5.425781 184.335938 8.164062 184.335938 10.988281 C 184.335938 10.996094 184.335938 11.007812 184.335938 11.007812 C 184.335938 19.890625 191.566406 27.125 200.453125 27.125 C 209.335938 27.125 216.570312 19.890625 216.570312 11.007812 C 216.570312 11.007812 216.570312 10.988281 216.570312 10.988281 C 216.570312 8.164062 215.835938 5.425781 214.441406 2.996094 C 215.105469 6.226562 214.617188 9.558594 213.054688 12.515625 C 211.269531 15.882812 208.277344 18.34375 204.628906 19.464844 C 200.980469 20.578125 197.125 20.207031 193.757812 18.425781 C 190.394531 16.640625 187.929688 13.648438 186.808594 10 C 186.109375 7.703125 185.996094 5.308594 186.464844 2.996094 Z M 186.464844 2.996094" fill="#013137"/></g><g clip-path="url(#77de2a04a9)"><path fill-rule="nonzero" fill-opacity="1" d="M 200.46875 0.125 L 202.800781 4.855469 L 208.019531 5.613281 L 204.242188 9.296875 L 205.136719 14.492188 L 200.46875 12.039062 L 195.796875 14.492188 L 196.6875 9.296875 L 192.914062 5.613281 L 198.132812 4.855469 Z M 200.46875 0.125" fill="#013137"/><path fill-rule="nonzero" fill-opacity="1" d="M 200.433594 0.0820312 L 202.769531 4.808594 L 207.984375 5.566406 L 204.210938 9.25 L 205.101562 14.449219 L 200.433594 11.996094 L 195.765625 14.449219 L 196.65625 9.25 L 192.878906 5.566406 L 198.097656 4.808594 Z M 200.433594 0.0820312" fill="#013137"/><path fill-rule="nonzero" fill-opacity="1" d="M 200.433594 0.0820312 L 202.769531 4.808594 L 207.984375 5.566406 L 204.210938 9.25 L 205.101562 14.449219 L 200.433594 11.996094 L 195.765625 14.449219 L 196.65625 9.25 L 192.878906 5.566406 L 198.097656 4.808594 Z M 200.433594 0.0820312" fill="#013137"/><path fill-rule="nonzero" fill-opacity="1" d="M 200.433594 0.0820312 L 202.769531 4.808594 L 207.984375 5.566406 L 204.210938 9.25 L 205.101562 14.449219 L 200.433594 11.996094 L 195.765625 14.449219 L 196.65625 9.25 L 192.878906 5.566406 L 198.097656 4.808594 Z M 200.433594 0.0820312" fill="#013137"/><path fill-rule="nonzero" fill-opacity="1" d="M 200.433594 0.0820312 L 202.769531 4.808594 L 207.984375 5.566406 L 204.210938 9.25 L 205.101562 14.449219 L 200.433594 11.996094 L 195.765625 14.449219 L 196.65625 9.25 L 192.878906 5.566406 L 198.097656 4.808594 Z M 200.433594 0.0820312" fill="#013137"/></g><g clip-path="url(#c92df42707)"><g clip-path="url(#4e89133f4f)"><g clip-path="url(#eb5d713200)"><path fill-rule="nonzero" fill-opacity="1" d="M 239.441406 478.332031 L 210.742188 507.03125 C 204.773438 513 195.101562 513 189.132812 507.03125 L 160.433594 478.332031 L 189.132812 449.632812 C 195.101562 443.667969 204.773438 443.667969 210.742188 449.632812 Z M 239.441406 478.332031" fill="#013137"/></g></g></g><g clip-path="url(#adf6e7b92d)"><g clip-path="url(#b5cc0e59d0)"><path fill-rule="nonzero" fill-opacity="1" d="M 302.28125 221.453125 L 201.933594 321.800781 L 158.464844 278.332031 L 258.8125 177.984375 Z M 302.28125 221.453125" fill="#013137"/></g></g><g clip-path="url(#4ca8a73ccd)"><g clip-path="url(#cc67ffda91)"><path fill-rule="nonzero" fill-opacity="1" d="M 141.394531 178.113281 L 231.75 268.472656 L 190.148438 310.074219 L 99.789062 219.71875 Z M 141.394531 178.113281" fill="#013137"/></g></g><g clip-path="url(#477137e7d8)"><g clip-path="url(#cda6251d40)"><path fill-rule="nonzero" fill-opacity="1" d="M 246.863281 252.761719 L 156.75 162.644531 L 200.113281 119.28125 L 290.226562 209.398438 Z M 246.863281 252.761719" fill="#013137"/></g></g><g clip-path="url(#26e1b23439)"><g clip-path="url(#3a19c421e4)"><path fill-rule="nonzero" fill-opacity="1" d="M 218.171875 188.015625 L 175.546875 230.640625 L 132.253906 187.347656 L 174.878906 144.722656 Z M 218.171875 188.015625" fill="#013137"/></g></g></g></g></g></svg>
